<svg xmlns="http://www.w3.org/2000/svg" xmlns:xlink="http://www.w3.org/1999/xlink" width="702" zoomAndPan="magnify" viewBox="406.50 418.50 702.00 219.00" height="219" preserveAspectRatio="xMidYMid meet" version="1.0"><defs><g/><clipPath id="b9a5ab03da"><path d="M 188.238281 0 L 1243 0 L 1243 1060 L 188.238281 1060 Z M 188.238281 0 " clip-rule="nonzero"/></clipPath><clipPath id="a818577c81"><path d="M 188.246094 -14.414062 L 253.582031 530.007812 L 330.335938 1074.410156 L 1242.410156 1074.410156 L 1242.410156 -14.414062 Z M 188.246094 -14.414062 " clip-rule="nonzero"/></clipPath><clipPath id="44c27f13a3"><path d="M 0.238281 0 L 1054.488281 0 L 1054.488281 1060 L 0.238281 1060 Z M 0.238281 0 " clip-rule="nonzero"/></clipPath><clipPath id="15bb9a9da5"><path d="M 0.246094 -14.414062 L 65.582031 530.007812 L 142.335938 1074.410156 L 1054.410156 1074.410156 L 1054.410156 -14.414062 Z M 0.246094 -14.414062 " clip-rule="nonzero"/></clipPath><clipPath id="6c9fe49046"><rect x="0" width="1055" y="0" height="1060"/></clipPath><clipPath id="490344c8bc"><path d="M 686 419 L 827 419 L 827 458.75 L 686 458.75 Z M 686 419 " clip-rule="nonzero"/></clipPath><clipPath id="6affd678db"><path d="M 686.554688 419.421875 L 808.175781 437.035156 L 826.757812 458.636719 Z M 686.554688 419.421875 " clip-rule="nonzero"/></clipPath><clipPath id="9a80463a41"><path d="M 0.429688 0.324219 L 140.765625 0.324219 L 140.765625 39.664062 L 0.429688 39.664062 Z M 0.429688 0.324219 " clip-rule="nonzero"/></clipPath><clipPath id="484b62d318"><path d="M 0.554688 0.421875 L 122.175781 18.035156 L 140.757812 39.636719 Z M 0.554688 0.421875 " clip-rule="nonzero"/></clipPath><clipPath id="c6a3a453ea"><rect x="0" width="141" y="0" height="40"/></clipPath><clipPath id="6c4ebb8a0e"><path d="M 826 458 L 882 458 L 882 509.902344 L 826 509.902344 Z M 826 458 " clip-rule="nonzero"/></clipPath><clipPath id="cd7fcbf468"><path d="M 881.101562 481.609375 L 826.757812 458.636719 L 861.933594 509.742188 Z M 881.101562 481.609375 " clip-rule="nonzero"/></clipPath><clipPath id="f5da427f1e"><path d="M 0.523438 0.425781 L 55.21875 0.425781 L 55.21875 51.757812 L 0.523438 51.757812 Z M 0.523438 0.425781 " clip-rule="nonzero"/></clipPath><clipPath id="422acfa6e8"><path d="M 55.101562 23.609375 L 0.757812 0.636719 L 35.933594 51.742188 Z M 55.101562 23.609375 " clip-rule="nonzero"/></clipPath><clipPath id="f577c660a1"><rect x="0" width="56" y="0" height="52"/></clipPath><clipPath id="1a0b2b2634"><path d="M 896 419 L 1037.753906 419 L 1037.753906 458.75 L 896 458.75 Z M 896 419 " clip-rule="nonzero"/></clipPath><clipPath id="f8dd5a21ad"><path d="M 1037.054688 419.421875 L 915.433594 437.035156 L 896.851562 458.636719 Z M 1037.054688 419.421875 " clip-rule="nonzero"/></clipPath><clipPath id="3e70f7d9f5"><path d="M 0.8125 0.324219 L 141.144531 0.324219 L 141.144531 39.664062 L 0.8125 39.664062 Z M 0.8125 0.324219 " clip-rule="nonzero"/></clipPath><clipPath id="4068904567"><path d="M 141.054688 0.421875 L 19.433594 18.035156 L 0.851562 39.636719 Z M 141.054688 0.421875 " clip-rule="nonzero"/></clipPath><clipPath id="561b4cc5ab"><rect x="0" width="142" y="0" height="40"/></clipPath><clipPath id="01e59ec1b2"><path d="M 842.273438 458 L 897 458 L 897 509.902344 L 842.273438 509.902344 Z M 842.273438 458 " clip-rule="nonzero"/></clipPath><clipPath id="93dbc961dc"><path d="M 842.507812 481.539062 L 896.871094 458.636719 L 861.953125 509.742188 Z M 842.507812 481.539062 " clip-rule="nonzero"/></clipPath><clipPath id="48fab36453"><path d="M 0.355469 0.425781 L 55 0.425781 L 55 51.757812 L 0.355469 51.757812 Z M 0.355469 0.425781 " clip-rule="nonzero"/></clipPath><clipPath id="99ea1c6ce8"><path d="M 0.507812 23.539062 L 54.871094 0.636719 L 19.953125 51.742188 Z M 0.507812 23.539062 " clip-rule="nonzero"/></clipPath><clipPath id="29744d223f"><rect x="0" width="55" y="0" height="52"/></clipPath><clipPath id="cccc0e3617"><path d="M 408.65625 510.730469 L 443.519531 510.730469 L 443.519531 517.550781 L 408.65625 517.550781 Z M 408.65625 517.550781 L 416.027344 517.550781 L 416.027344 538.679688 L 408.65625 538.679688 Z M 408.65625 538.679688 L 442.003906 538.679688 L 442.003906 545.410156 L 408.65625 545.410156 Z M 408.65625 545.410156 L 416.027344 545.410156 L 416.027344 578.113281 L 408.65625 578.113281 Z M 408.65625 545.410156 " clip-rule="nonzero"/></clipPath><clipPath id="d8a07978eb"><path d="M 0.65625 0.730469 L 35.519531 0.730469 L 35.519531 7.550781 L 0.65625 7.550781 Z M 0.65625 7.550781 L 8.027344 7.550781 L 8.027344 28.679688 L 0.65625 28.679688 Z M 0.65625 28.679688 L 34.003906 28.679688 L 34.003906 35.410156 L 0.65625 35.410156 Z M 0.65625 35.410156 L 8.027344 35.410156 L 8.027344 68.113281 L 0.65625 68.113281 Z M 0.65625 35.410156 " clip-rule="nonzero"/></clipPath><clipPath id="b207c668c8"><rect x="0" width="36" y="0" height="69"/></clipPath><clipPath id="2780470e8c"><path d="M 406.992188 509.082031 L 445.148438 509.082031 L 445.148438 512.375 L 406.992188 512.375 Z M 441.855469 512.375 L 445.148438 512.375 L 445.148438 515.90625 L 441.855469 515.90625 Z M 414.347656 515.90625 L 445.148438 515.90625 L 445.148438 517.550781 L 414.347656 517.550781 Z M 414.382812 517.550781 L 445.148438 517.550781 L 445.148438 519.199219 L 414.382812 519.199219 Z M 414.382812 519.199219 L 417.65625 519.199219 L 417.65625 537.03125 L 414.382812 537.03125 Z M 414.382812 537.03125 L 443.628906 537.03125 L 443.628906 540.324219 L 414.382812 540.324219 Z M 440.355469 540.324219 L 443.628906 540.324219 L 443.628906 543.765625 L 440.355469 543.765625 Z M 414.382812 543.765625 L 443.628906 543.765625 L 443.628906 547.054688 L 414.382812 547.054688 Z M 414.382812 547.054688 L 417.65625 547.054688 L 417.65625 576.488281 L 414.382812 576.488281 Z M 406.992188 512.375 L 410.304688 512.375 L 410.304688 576.488281 L 406.992188 576.488281 Z M 406.992188 576.488281 L 417.65625 576.488281 L 417.65625 579.761719 L 406.992188 579.761719 Z M 406.992188 576.488281 " clip-rule="nonzero"/></clipPath><clipPath id="756a48c5df"><path d="M 0.992188 0.0820312 L 39.148438 0.0820312 L 39.148438 3.375 L 0.992188 3.375 Z M 35.855469 3.375 L 39.148438 3.375 L 39.148438 6.90625 L 35.855469 6.90625 Z M 8.347656 6.90625 L 39.148438 6.90625 L 39.148438 8.550781 L 8.347656 8.550781 Z M 8.382812 8.550781 L 39.148438 8.550781 L 39.148438 10.199219 L 8.382812 10.199219 Z M 8.382812 10.199219 L 11.65625 10.199219 L 11.65625 28.03125 L 8.382812 28.03125 Z M 8.382812 28.03125 L 37.628906 28.03125 L 37.628906 31.324219 L 8.382812 31.324219 Z M 34.355469 31.324219 L 37.628906 31.324219 L 37.628906 34.765625 L 34.355469 34.765625 Z M 8.382812 34.765625 L 37.628906 34.765625 L 37.628906 38.054688 L 8.382812 38.054688 Z M 8.382812 38.054688 L 11.65625 38.054688 L 11.65625 67.488281 L 8.382812 67.488281 Z M 0.992188 3.375 L 4.304688 3.375 L 4.304688 67.488281 L 0.992188 67.488281 Z M 0.992188 67.488281 L 11.65625 67.488281 L 11.65625 70.761719 L 0.992188 70.761719 Z M 0.992188 67.488281 " clip-rule="nonzero"/></clipPath><clipPath id="0589c985b3"><rect x="0" width="40" y="0" height="71"/></clipPath><clipPath id="8eb3e46f50"><path d="M 461 510 L 515 510 L 515 579 L 461 579 Z M 461 510 " clip-rule="nonzero"/></clipPath><clipPath id="06454942fa"><path d="M 481.457031 548.921875 C 497.625 548.921875 505.363281 542.90625 505.363281 532.039062 C 505.363281 523.3125 500.332031 517.386719 485.589844 517.386719 L 468.964844 517.386719 L 468.964844 547.75 C 472.203125 548.464844 476.242188 548.921875 481.457031 548.921875 M 505.894531 578.113281 L 490.527344 554.847656 C 487.75 555.289062 484.695312 555.46875 481.457031 555.46875 C 476.152344 555.46875 472.203125 555.03125 468.964844 554.207031 L 468.964844 578.113281 L 461.59375 578.113281 L 461.59375 510.730469 L 486.210938 510.730469 C 504.285156 510.730469 513.082031 518.816406 513.082031 531.929688 C 513.082031 542.445312 507.523438 549.636719 497.625 553.054688 L 514.160156 578.113281 Z M 505.894531 578.113281 " clip-rule="nonzero"/></clipPath><clipPath id="311d0f9526"><path d="M 0.417969 0.71875 L 53.191406 0.71875 L 53.191406 68.128906 L 0.417969 68.128906 Z M 0.417969 0.71875 " clip-rule="nonzero"/></clipPath><clipPath id="4909f67101"><path d="M 20.457031 38.921875 C 36.625 38.921875 44.363281 32.90625 44.363281 22.039062 C 44.363281 13.3125 39.332031 7.386719 24.589844 7.386719 L 7.964844 7.386719 L 7.964844 37.75 C 11.203125 38.464844 15.242188 38.921875 20.457031 38.921875 M 44.894531 68.113281 L 29.527344 44.847656 C 26.75 45.289062 23.695312 45.46875 20.457031 45.46875 C 15.152344 45.46875 11.203125 45.03125 7.964844 44.207031 L 7.964844 68.113281 L 0.59375 68.113281 L 0.59375 0.730469 L 25.210938 0.730469 C 43.285156 0.730469 52.082031 8.816406 52.082031 21.929688 C 52.082031 32.445312 46.523438 39.636719 36.625 43.054688 L 53.160156 68.113281 Z M 44.894531 68.113281 " clip-rule="nonzero"/></clipPath><clipPath id="4ee47a0cb4"><rect x="0" width="54" y="0" height="69"/></clipPath><clipPath id="c7182bc9c0"><path d="M 459 509 L 518 509 L 518 580 L 459 580 Z M 459 509 " clip-rule="nonzero"/></clipPath><clipPath id="c86392a27a"><path d="M 481.457031 547.277344 C 497.261719 547.277344 503.71875 541.53125 503.71875 532.019531 L 505.363281 532.019531 L 503.71875 532.019531 C 503.71875 524.484375 499.730469 519.015625 485.589844 519.015625 L 485.589844 517.371094 L 485.589844 519.015625 L 468.964844 519.015625 L 468.964844 517.371094 L 470.609375 517.371094 L 470.609375 547.734375 L 468.964844 547.734375 L 469.3125 546.125 C 472.402344 546.820312 476.335938 547.257812 481.457031 547.257812 L 481.457031 548.902344 L 481.457031 547.257812 M 481.457031 550.550781 C 476.152344 550.550781 471.980469 550.09375 468.617188 549.34375 L 467.335938 549.050781 L 467.335938 515.722656 L 485.609375 515.722656 C 500.953125 515.722656 507.027344 522.125 507.027344 532.019531 C 507.027344 544.238281 498.027344 550.550781 481.476562 550.550781 Z M 504.523438 579.011719 L 489.15625 555.746094 L 490.527344 554.832031 L 490.785156 556.457031 C 487.894531 556.914062 484.75 557.097656 481.457031 557.097656 L 481.457031 555.453125 L 481.457031 557.097656 C 476.0625 557.097656 471.964844 556.640625 468.5625 555.800781 L 468.964844 554.207031 L 470.609375 554.207031 L 470.609375 579.761719 L 459.945312 579.761719 L 459.945312 509.082031 L 486.210938 509.082031 L 486.210938 510.730469 L 486.210938 509.082031 C 504.871094 509.082031 514.726562 517.625 514.726562 531.929688 L 513.082031 531.929688 L 514.726562 531.929688 C 514.726562 543.195312 508.65625 550.972656 498.175781 554.609375 L 497.644531 553.054688 L 499.015625 552.160156 L 515.550781 577.21875 L 517.234375 579.761719 L 505.035156 579.761719 L 504.539062 579.03125 M 507.285156 577.21875 L 505.910156 578.132812 L 505.910156 576.488281 L 514.179688 576.488281 L 514.179688 578.132812 L 512.808594 579.03125 L 496.273438 553.96875 L 495.101562 552.195312 L 497.09375 551.5 C 506.371094 548.300781 511.4375 541.695312 511.4375 531.929688 C 511.4375 520.003906 503.679688 512.375 486.210938 512.375 L 461.59375 512.375 L 461.59375 510.730469 L 463.238281 510.730469 L 463.238281 578.132812 L 461.59375 578.132812 L 461.59375 576.488281 L 468.964844 576.488281 L 468.964844 578.132812 L 467.316406 578.132812 L 467.316406 552.125 L 469.367188 552.636719 C 472.4375 553.402344 476.242188 553.84375 481.457031 553.84375 C 484.640625 553.84375 487.601562 553.660156 490.273438 553.238281 L 491.316406 553.074219 L 491.902344 553.953125 L 507.265625 577.21875 Z M 507.285156 577.21875 " clip-rule="nonzero"/></clipPath><clipPath id="02470ffe30"><path d="M 0.738281 0.0390625 L 58.308594 0.0390625 L 58.308594 70.804688 L 0.738281 70.804688 Z M 0.738281 0.0390625 " clip-rule="nonzero"/></clipPath><clipPath id="c0777a7c66"><path d="M 22.457031 38.277344 C 38.261719 38.277344 44.71875 32.53125 44.71875 23.019531 L 46.363281 23.019531 L 44.71875 23.019531 C 44.71875 15.484375 40.730469 10.015625 26.589844 10.015625 L 26.589844 8.371094 L 26.589844 10.015625 L 9.964844 10.015625 L 9.964844 8.371094 L 11.609375 8.371094 L 11.609375 38.734375 L 9.964844 38.734375 L 10.3125 37.125 C 13.402344 37.820312 17.335938 38.257812 22.457031 38.257812 L 22.457031 39.902344 L 22.457031 38.257812 M 22.457031 41.550781 C 17.152344 41.550781 12.980469 41.09375 9.617188 40.34375 L 8.335938 40.050781 L 8.335938 6.722656 L 26.609375 6.722656 C 41.953125 6.722656 48.027344 13.125 48.027344 23.019531 C 48.027344 35.238281 39.027344 41.550781 22.476562 41.550781 Z M 45.523438 70.011719 L 30.15625 46.746094 L 31.527344 45.832031 L 31.785156 47.457031 C 28.894531 47.914062 25.75 48.097656 22.457031 48.097656 L 22.457031 46.453125 L 22.457031 48.097656 C 17.0625 48.097656 12.964844 47.640625 9.5625 46.800781 L 9.964844 45.207031 L 11.609375 45.207031 L 11.609375 70.761719 L 0.945312 70.761719 L 0.945312 0.0820312 L 27.210938 0.0820312 L 27.210938 1.730469 L 27.210938 0.0820312 C 45.871094 0.0820312 55.726562 8.625 55.726562 22.929688 L 54.082031 22.929688 L 55.726562 22.929688 C 55.726562 34.195312 49.65625 41.972656 39.175781 45.609375 L 38.644531 44.054688 L 40.015625 43.160156 L 56.550781 68.21875 L 58.234375 70.761719 L 46.035156 70.761719 L 45.539062 70.03125 M 48.285156 68.21875 L 46.910156 69.132812 L 46.910156 67.488281 L 55.179688 67.488281 L 55.179688 69.132812 L 53.808594 70.03125 L 37.273438 44.96875 L 36.101562 43.195312 L 38.09375 42.5 C 47.371094 39.300781 52.4375 32.695312 52.4375 22.929688 C 52.4375 11.003906 44.679688 3.375 27.210938 3.375 L 2.59375 3.375 L 2.59375 1.730469 L 4.238281 1.730469 L 4.238281 69.132812 L 2.59375 69.132812 L 2.59375 67.488281 L 9.964844 67.488281 L 9.964844 69.132812 L 8.316406 69.132812 L 8.316406 43.125 L 10.367188 43.636719 C 13.4375 44.402344 17.242188 44.84375 22.457031 44.84375 C 25.640625 44.84375 28.601562 44.660156 31.273438 44.238281 L 32.316406 44.074219 L 32.902344 44.953125 L 48.265625 68.21875 Z M 48.285156 68.21875 " clip-rule="nonzero"/></clipPath><clipPath id="9e1da200ac"><rect x="0" width="59" y="0" height="71"/></clipPath><clipPath id="30b51e6f6f"><path d="M 531.777344 510.730469 L 573.734375 510.730469 L 573.734375 517.550781 L 531.777344 517.550781 Z M 531.777344 517.550781 L 538.78125 517.550781 L 538.78125 538.679688 L 531.777344 538.679688 Z M 531.777344 538.679688 L 571.851562 538.679688 L 571.851562 545.410156 L 531.777344 545.410156 Z M 531.777344 545.410156 L 538.78125 545.410156 L 538.78125 571.292969 L 531.777344 571.292969 Z M 531.777344 571.292969 L 574.816406 571.292969 L 574.816406 578.113281 L 531.777344 578.113281 Z M 531.777344 571.292969 " clip-rule="nonzero"/></clipPath><clipPath id="0d0534f6f5"><path d="M 0.777344 0.730469 L 42.734375 0.730469 L 42.734375 7.550781 L 0.777344 7.550781 Z M 0.777344 7.550781 L 7.78125 7.550781 L 7.78125 28.679688 L 0.777344 28.679688 Z M 0.777344 28.679688 L 40.851562 28.679688 L 40.851562 35.410156 L 0.777344 35.410156 Z M 0.777344 35.410156 L 7.78125 35.410156 L 7.78125 61.292969 L 0.777344 61.292969 Z M 0.777344 61.292969 L 43.816406 61.292969 L 43.816406 68.113281 L 0.777344 68.113281 Z M 0.777344 61.292969 " clip-rule="nonzero"/></clipPath><clipPath id="f3d480615e"><rect x="0" width="44" y="0" height="69"/></clipPath><clipPath id="95f3fb93cc"><path d="M 530.128906 509.082031 L 575.382812 509.082031 L 575.382812 512.375 L 530.128906 512.375 Z M 572.089844 512.375 L 575.382812 512.375 L 575.382812 515.90625 L 572.089844 515.90625 Z M 537.136719 515.90625 L 575.382812 515.90625 L 575.382812 519.199219 L 537.136719 519.199219 Z M 537.136719 519.199219 L 540.425781 519.199219 L 540.425781 537.03125 L 537.136719 537.03125 Z M 537.136719 537.03125 L 573.5 537.03125 L 573.5 540.324219 L 537.136719 540.324219 Z M 570.207031 540.324219 L 573.5 540.324219 L 573.5 543.765625 L 570.207031 543.765625 Z M 537.136719 543.765625 L 573.5 543.765625 L 573.5 547.054688 L 537.136719 547.054688 Z M 537.136719 547.054688 L 540.425781 547.054688 L 540.425781 569.644531 L 537.136719 569.644531 Z M 537.136719 569.644531 L 576.460938 569.644531 L 576.460938 572.9375 L 537.136719 572.9375 Z M 573.167969 572.9375 L 576.460938 572.9375 L 576.460938 576.46875 L 573.167969 576.46875 Z M 530.128906 512.375 L 533.421875 512.375 L 533.421875 576.46875 L 530.128906 576.46875 Z M 530.128906 576.46875 L 576.460938 576.46875 L 576.460938 579.761719 L 530.128906 579.761719 Z M 530.128906 576.46875 " clip-rule="nonzero"/></clipPath><clipPath id="8ddacb4e83"><path d="M 0.128906 0.0820312 L 45.382812 0.0820312 L 45.382812 3.375 L 0.128906 3.375 Z M 42.089844 3.375 L 45.382812 3.375 L 45.382812 6.90625 L 42.089844 6.90625 Z M 7.136719 6.90625 L 45.382812 6.90625 L 45.382812 10.199219 L 7.136719 10.199219 Z M 7.136719 10.199219 L 10.425781 10.199219 L 10.425781 28.03125 L 7.136719 28.03125 Z M 7.136719 28.03125 L 43.5 28.03125 L 43.5 31.324219 L 7.136719 31.324219 Z M 40.207031 31.324219 L 43.5 31.324219 L 43.5 34.765625 L 40.207031 34.765625 Z M 7.136719 34.765625 L 43.5 34.765625 L 43.5 38.054688 L 7.136719 38.054688 Z M 7.136719 38.054688 L 10.425781 38.054688 L 10.425781 60.644531 L 7.136719 60.644531 Z M 7.136719 60.644531 L 46.460938 60.644531 L 46.460938 63.9375 L 7.136719 63.9375 Z M 43.167969 63.9375 L 46.460938 63.9375 L 46.460938 67.46875 L 43.167969 67.46875 Z M 0.128906 3.375 L 3.421875 3.375 L 3.421875 67.46875 L 0.128906 67.46875 Z M 0.128906 67.46875 L 46.460938 67.46875 L 46.460938 70.761719 L 0.128906 70.761719 Z M 0.128906 67.46875 " clip-rule="nonzero"/></clipPath><clipPath id="52da53b1f0"><rect x="0" width="47" y="0" height="71"/></clipPath><clipPath id="dc1a4533c7"><path d="M 593.875 510.730469 L 635.835938 510.730469 L 635.835938 517.550781 L 593.875 517.550781 Z M 593.875 517.550781 L 600.898438 517.550781 L 600.898438 538.679688 L 593.875 538.679688 Z M 593.875 538.679688 L 633.96875 538.679688 L 633.96875 545.410156 L 593.875 545.410156 Z M 593.875 545.410156 L 600.898438 545.410156 L 600.898438 571.292969 L 593.875 571.292969 Z M 593.875 571.292969 L 636.933594 571.292969 L 636.933594 578.113281 L 593.875 578.113281 Z M 593.875 571.292969 " clip-rule="nonzero"/></clipPath><clipPath id="c4981031ca"><path d="M 0.875 0.730469 L 42.835938 0.730469 L 42.835938 7.550781 L 0.875 7.550781 Z M 0.875 7.550781 L 7.898438 7.550781 L 7.898438 28.679688 L 0.875 28.679688 Z M 0.875 28.679688 L 40.96875 28.679688 L 40.96875 35.410156 L 0.875 35.410156 Z M 0.875 35.410156 L 7.898438 35.410156 L 7.898438 61.292969 L 0.875 61.292969 Z M 0.875 61.292969 L 43.933594 61.292969 L 43.933594 68.113281 L 0.875 68.113281 Z M 0.875 61.292969 " clip-rule="nonzero"/></clipPath><clipPath id="fa7e2af005"><rect x="0" width="44" y="0" height="69"/></clipPath><clipPath id="5360ddc354"><path d="M 592.246094 509.082031 L 637.5 509.082031 L 637.5 512.375 L 592.246094 512.375 Z M 634.207031 512.375 L 637.5 512.375 L 637.5 515.90625 L 634.207031 515.90625 Z M 599.253906 515.90625 L 637.5 515.90625 L 637.5 519.199219 L 599.253906 519.199219 Z M 599.253906 519.199219 L 602.542969 519.199219 L 602.542969 537.03125 L 599.253906 537.03125 Z M 599.253906 537.03125 L 635.617188 537.03125 L 635.617188 540.324219 L 599.253906 540.324219 Z M 632.324219 540.324219 L 635.617188 540.324219 L 635.617188 543.765625 L 632.324219 543.765625 Z M 599.253906 543.765625 L 635.617188 543.765625 L 635.617188 547.054688 L 599.253906 547.054688 Z M 599.253906 547.054688 L 602.542969 547.054688 L 602.542969 569.644531 L 599.253906 569.644531 Z M 599.253906 569.644531 L 638.578125 569.644531 L 638.578125 572.9375 L 599.253906 572.9375 Z M 635.285156 572.9375 L 638.578125 572.9375 L 638.578125 576.46875 L 635.285156 576.46875 Z M 592.246094 512.375 L 595.519531 512.375 L 595.519531 576.46875 L 592.246094 576.46875 Z M 592.246094 576.46875 L 638.578125 576.46875 L 638.578125 579.761719 L 592.246094 579.761719 Z M 592.246094 576.46875 " clip-rule="nonzero"/></clipPath><clipPath id="7cbddfd8d0"><path d="M 0.246094 0.0820312 L 45.5 0.0820312 L 45.5 3.375 L 0.246094 3.375 Z M 42.207031 3.375 L 45.5 3.375 L 45.5 6.90625 L 42.207031 6.90625 Z M 7.253906 6.90625 L 45.5 6.90625 L 45.5 10.199219 L 7.253906 10.199219 Z M 7.253906 10.199219 L 10.542969 10.199219 L 10.542969 28.03125 L 7.253906 28.03125 Z M 7.253906 28.03125 L 43.617188 28.03125 L 43.617188 31.324219 L 7.253906 31.324219 Z M 40.324219 31.324219 L 43.617188 31.324219 L 43.617188 34.765625 L 40.324219 34.765625 Z M 7.253906 34.765625 L 43.617188 34.765625 L 43.617188 38.054688 L 7.253906 38.054688 Z M 7.253906 38.054688 L 10.542969 38.054688 L 10.542969 60.644531 L 7.253906 60.644531 Z M 7.253906 60.644531 L 46.578125 60.644531 L 46.578125 63.9375 L 7.253906 63.9375 Z M 43.285156 63.9375 L 46.578125 63.9375 L 46.578125 67.46875 L 43.285156 67.46875 Z M 0.246094 3.375 L 3.519531 3.375 L 3.519531 67.46875 L 0.246094 67.46875 Z M 0.246094 67.46875 L 46.578125 67.46875 L 46.578125 70.761719 L 0.246094 70.761719 Z M 0.246094 67.46875 " clip-rule="nonzero"/></clipPath><clipPath id="3303211621"><rect x="0" width="47" y="0" height="71"/></clipPath><clipPath id="23df8eb5af"><path d="M 655.929688 510 L 714 510 L 714 580 L 655.929688 580 Z M 655.929688 510 " clip-rule="nonzero"/></clipPath><clipPath id="9a2898eb7a"><path d="M 705.761719 544.421875 C 705.761719 529.589844 694.96875 517.460938 675.5625 517.460938 L 663.160156 517.460938 L 663.160156 571.292969 C 666.746094 572.097656 671.613281 572.644531 675.910156 572.644531 C 695.152344 572.644531 705.742188 560.0625 705.742188 544.441406 M 713.296875 544.347656 C 713.296875 564.652344 698.390625 579.394531 675.289062 579.394531 C 667.644531 579.394531 659.648438 578.042969 655.972656 576.613281 L 655.972656 510.730469 L 675.65625 510.730469 C 698.484375 510.730469 713.296875 525.105469 713.296875 544.332031 " clip-rule="nonzero"/></clipPath><clipPath id="6d21352bec"><path d="M 0.964844 0.71875 L 58.539062 0.71875 L 58.539062 69.566406 L 0.964844 69.566406 Z M 0.964844 0.71875 " clip-rule="nonzero"/></clipPath><clipPath id="19c6ab5f7c"><path d="M 50.761719 34.421875 C 50.761719 19.589844 39.96875 7.460938 20.5625 7.460938 L 8.160156 7.460938 L 8.160156 61.292969 C 11.746094 62.097656 16.613281 62.644531 20.910156 62.644531 C 40.152344 62.644531 50.742188 50.0625 50.742188 34.441406 M 58.296875 34.347656 C 58.296875 54.652344 43.390625 69.394531 20.289062 69.394531 C 12.644531 69.394531 4.648438 68.042969 0.972656 66.613281 L 0.972656 0.730469 L 20.65625 0.730469 C 43.484375 0.730469 58.296875 15.105469 58.296875 34.332031 " clip-rule="nonzero"/></clipPath><clipPath id="06583685cd"><rect x="0" width="59" y="0" height="70"/></clipPath><clipPath id="7cbb6d0319"><path d="M 654.101562 509 L 715 509 L 715 581.152344 L 654.101562 581.152344 Z M 654.101562 509 " clip-rule="nonzero"/></clipPath><clipPath id="0a126ac3af"><path d="M 704.117188 544.421875 C 704.117188 530.574219 694.148438 519.105469 675.5625 519.105469 L 675.5625 517.460938 L 675.5625 519.105469 L 663.160156 519.105469 L 663.160156 517.460938 L 664.808594 517.460938 L 664.808594 571.292969 L 663.160156 571.292969 L 663.527344 569.683594 C 666.984375 570.46875 671.722656 571 675.929688 571 L 675.929688 572.644531 L 675.929688 571 C 694.238281 571 704.117188 559.164062 704.117188 544.421875 L 705.761719 544.421875 L 704.117188 544.421875 M 707.410156 544.421875 C 707.410156 560.957031 696.085938 574.273438 675.929688 574.273438 C 671.503906 574.273438 666.527344 573.726562 662.8125 572.882812 L 661.535156 572.589844 L 661.535156 515.796875 L 675.582031 515.796875 C 695.832031 515.796875 707.425781 528.582031 707.425781 544.402344 Z M 714.964844 544.332031 C 714.964844 565.640625 699.214844 581.023438 675.308594 581.023438 L 675.308594 579.378906 L 675.308594 581.023438 C 667.550781 581.023438 659.339844 579.667969 655.386719 578.132812 L 654.34375 577.730469 L 654.34375 509.082031 L 675.671875 509.082031 L 675.671875 510.730469 L 675.671875 509.082031 C 699.269531 509.082031 714.964844 524.0625 714.964844 544.332031 L 713.316406 544.332031 L 714.964844 544.332031 M 711.671875 544.332031 C 711.671875 526.148438 697.714844 512.375 675.671875 512.375 L 655.992188 512.375 L 655.992188 510.730469 L 657.636719 510.730469 L 657.636719 576.597656 L 655.992188 576.597656 L 656.59375 575.058594 C 660.015625 576.394531 667.789062 577.730469 675.324219 577.730469 C 697.605469 577.730469 711.6875 563.628906 711.6875 544.332031 Z M 711.671875 544.332031 " clip-rule="nonzero"/></clipPath><clipPath id="ec00ef214d"><path d="M 0.285156 0.0390625 L 60.976562 0.0390625 L 60.976562 72.152344 L 0.285156 72.152344 Z M 0.285156 0.0390625 " clip-rule="nonzero"/></clipPath><clipPath id="4a51052cc1"><path d="M 50.117188 35.421875 C 50.117188 21.574219 40.148438 10.105469 21.5625 10.105469 L 21.5625 8.460938 L 21.5625 10.105469 L 9.160156 10.105469 L 9.160156 8.460938 L 10.808594 8.460938 L 10.808594 62.292969 L 9.160156 62.292969 L 9.527344 60.683594 C 12.984375 61.46875 17.722656 62 21.929688 62 L 21.929688 63.644531 L 21.929688 62 C 40.238281 62 50.117188 50.164062 50.117188 35.421875 L 51.761719 35.421875 L 50.117188 35.421875 M 53.410156 35.421875 C 53.410156 51.957031 42.085938 65.273438 21.929688 65.273438 C 17.503906 65.273438 12.527344 64.726562 8.8125 63.882812 L 7.535156 63.589844 L 7.535156 6.796875 L 21.582031 6.796875 C 41.832031 6.796875 53.425781 19.582031 53.425781 35.402344 Z M 60.964844 35.332031 C 60.964844 56.640625 45.214844 72.023438 21.308594 72.023438 L 21.308594 70.378906 L 21.308594 72.023438 C 13.550781 72.023438 5.339844 70.667969 1.386719 69.132812 L 0.34375 68.730469 L 0.34375 0.0820312 L 21.671875 0.0820312 L 21.671875 1.730469 L 21.671875 0.0820312 C 45.269531 0.0820312 60.964844 15.0625 60.964844 35.332031 L 59.316406 35.332031 L 60.964844 35.332031 M 57.671875 35.332031 C 57.671875 17.148438 43.714844 3.375 21.671875 3.375 L 1.992188 3.375 L 1.992188 1.730469 L 3.636719 1.730469 L 3.636719 67.597656 L 1.992188 67.597656 L 2.59375 66.058594 C 6.015625 67.394531 13.789062 68.730469 21.324219 68.730469 C 43.605469 68.730469 57.6875 54.628906 57.6875 35.332031 Z M 57.671875 35.332031 " clip-rule="nonzero"/></clipPath><clipPath id="166dcfa1bc"><rect x="0" width="61" y="0" height="73"/></clipPath><clipPath id="0737de0d25"><path d="M 726 509 L 796 509 L 796 580 L 726 580 Z M 726 509 " clip-rule="nonzero"/></clipPath><clipPath id="ed149cc57c"><path d="M 788.546875 544.421875 C 788.546875 528.691406 776.605469 516.472656 760.964844 516.472656 C 745.328125 516.472656 733.566406 528.691406 733.566406 544.421875 C 733.566406 560.246094 745.328125 572.554688 760.964844 572.554688 C 776.605469 572.554688 788.546875 560.246094 788.546875 544.421875 M 726.101562 544.421875 C 726.101562 524.925781 741.191406 509.742188 760.964844 509.742188 C 780.902344 509.742188 795.921875 524.925781 795.921875 544.421875 C 795.921875 564.105469 780.902344 579.378906 760.964844 579.378906 C 741.191406 579.378906 726.101562 564.105469 726.101562 544.421875 " clip-rule="nonzero"/></clipPath><clipPath id="bf1a03cea2"><path d="M 0.0117188 0.519531 L 70 0.519531 L 70 70.566406 L 0.0117188 70.566406 Z M 0.0117188 0.519531 " clip-rule="nonzero"/></clipPath><clipPath id="50dd63c4b5"><path d="M 62.546875 35.421875 C 62.546875 19.691406 50.605469 7.472656 34.964844 7.472656 C 19.328125 7.472656 7.566406 19.691406 7.566406 35.421875 C 7.566406 51.246094 19.328125 63.554688 34.964844 63.554688 C 50.605469 63.554688 62.546875 51.246094 62.546875 35.421875 M 0.101562 35.421875 C 0.101562 15.925781 15.191406 0.742188 34.964844 0.742188 C 54.902344 0.742188 69.921875 15.925781 69.921875 35.421875 C 69.921875 55.105469 54.902344 70.378906 34.964844 70.378906 C 15.191406 70.378906 0.101562 55.105469 0.101562 35.421875 " clip-rule="nonzero"/></clipPath><clipPath id="748a845f8d"><rect x="0" width="70" y="0" height="71"/></clipPath><clipPath id="7990253f32"><path d="M 724 508.078125 L 798 508.078125 L 798 581.152344 L 724 581.152344 Z M 724 508.078125 " clip-rule="nonzero"/></clipPath><clipPath id="521e8c79c5"><path d="M 786.902344 544.421875 C 786.902344 529.570312 775.652344 518.121094 760.964844 518.121094 L 760.964844 516.472656 L 760.964844 518.121094 C 746.277344 518.121094 735.191406 529.570312 735.191406 544.421875 L 733.546875 544.421875 L 735.191406 544.421875 C 735.191406 559.382812 746.277344 570.910156 760.964844 570.910156 L 760.964844 572.554688 L 760.964844 570.910156 C 775.652344 570.910156 786.902344 559.367188 786.902344 544.421875 L 788.546875 544.421875 L 786.902344 544.421875 M 790.195312 544.421875 C 790.195312 561.105469 777.539062 574.183594 760.964844 574.183594 C 744.375 574.183594 731.917969 561.085938 731.917969 544.421875 C 731.917969 527.832031 744.394531 514.828125 760.964844 514.828125 C 777.519531 514.828125 790.195312 527.8125 790.195312 544.421875 Z M 724.457031 544.421875 C 724.457031 524.007812 740.296875 508.097656 760.964844 508.097656 L 760.964844 509.742188 L 760.964844 508.097656 C 781.816406 508.097656 797.566406 524.007812 797.566406 544.421875 L 795.921875 544.421875 L 797.566406 544.421875 C 797.566406 565 781.835938 581.023438 760.964844 581.023438 L 760.964844 579.378906 L 760.964844 581.023438 C 740.277344 581.023438 724.457031 565 724.457031 544.421875 L 726.101562 544.421875 L 724.457031 544.421875 M 727.75 544.421875 C 727.75 563.207031 742.125 577.730469 760.964844 577.730469 C 779.988281 577.730469 794.273438 563.207031 794.273438 544.421875 C 794.273438 525.839844 780.007812 511.386719 760.964844 511.386719 C 742.105469 511.386719 727.75 525.839844 727.75 544.421875 Z M 727.75 544.421875 " clip-rule="nonzero"/></clipPath><clipPath id="373da0752b"><path d="M 0.332031 0.0820312 L 73.738281 0.0820312 L 73.738281 73.152344 L 0.332031 73.152344 Z M 0.332031 0.0820312 " clip-rule="nonzero"/></clipPath><clipPath id="20cd637ba7"><path d="M 62.902344 36.421875 C 62.902344 21.570312 51.652344 10.121094 36.964844 10.121094 L 36.964844 8.472656 L 36.964844 10.121094 C 22.277344 10.121094 11.191406 21.570312 11.191406 36.421875 L 9.546875 36.421875 L 11.191406 36.421875 C 11.191406 51.382812 22.277344 62.910156 36.964844 62.910156 L 36.964844 64.554688 L 36.964844 62.910156 C 51.652344 62.910156 62.902344 51.367188 62.902344 36.421875 L 64.546875 36.421875 L 62.902344 36.421875 M 66.195312 36.421875 C 66.195312 53.105469 53.539062 66.183594 36.964844 66.183594 C 20.375 66.183594 7.917969 53.085938 7.917969 36.421875 C 7.917969 19.832031 20.394531 6.828125 36.964844 6.828125 C 53.519531 6.828125 66.195312 19.8125 66.195312 36.421875 Z M 0.457031 36.421875 C 0.457031 16.007812 16.296875 0.0976562 36.964844 0.0976562 L 36.964844 1.742188 L 36.964844 0.0976562 C 57.816406 0.0976562 73.566406 16.007812 73.566406 36.421875 L 71.921875 36.421875 L 73.566406 36.421875 C 73.566406 57 57.835938 73.023438 36.964844 73.023438 L 36.964844 71.378906 L 36.964844 73.023438 C 16.277344 73.023438 0.457031 57 0.457031 36.421875 L 2.101562 36.421875 L 0.457031 36.421875 M 3.75 36.421875 C 3.75 55.207031 18.125 69.730469 36.964844 69.730469 C 55.988281 69.730469 70.273438 55.207031 70.273438 36.421875 C 70.273438 17.839844 56.007812 3.386719 36.964844 3.386719 C 18.105469 3.386719 3.75 17.839844 3.75 36.421875 Z M 3.75 36.421875 " clip-rule="nonzero"/></clipPath><clipPath id="28ab5a5bc5"><rect x="0" width="74" y="0" height="74"/></clipPath><clipPath id="de3ae7bba3"><path d="M 808 493 L 915 493 L 915 579 L 808 579 Z M 808 493 " clip-rule="nonzero"/></clipPath><clipPath id="e05c7c2293"><path d="M 905.519531 578.5 L 895.371094 514.808594 L 863.230469 570.707031 L 860.980469 570.707031 L 828.40625 514.699219 L 818.125 578.5 L 808.871094 578.5 L 823.101562 493.132812 L 825.132812 493.132812 L 862.007812 556.496094 L 898.664062 493.132812 L 900.582031 493.132812 L 914.8125 578.5 Z M 905.519531 578.5 " clip-rule="nonzero"/></clipPath><clipPath id="9583c44350"><path d="M 0.773438 0 L 107 0 L 107 85.605469 L 0.773438 85.605469 Z M 0.773438 0 " clip-rule="nonzero"/></clipPath><clipPath id="a5c116a7c4"><path d="M 97.519531 85.5 L 87.371094 21.808594 L 55.230469 77.707031 L 52.980469 77.707031 L 20.40625 21.699219 L 10.125 85.5 L 0.871094 85.5 L 15.101562 0.132812 L 17.132812 0.132812 L 54.007812 63.496094 L 90.664062 0.132812 L 92.582031 0.132812 L 106.8125 85.5 Z M 97.519531 85.5 " clip-rule="nonzero"/></clipPath><clipPath id="9cee6dc1c9"><rect x="0" width="107" y="0" height="86"/></clipPath><clipPath id="e9c4d58bfd"><path d="M 806 491 L 917 491 L 917 581 L 806 581 Z M 806 491 " clip-rule="nonzero"/></clipPath><clipPath id="4624b78951"><path d="M 903.894531 578.753906 L 893.742188 515.066406 L 895.371094 514.808594 L 896.796875 515.632812 L 864.660156 571.53125 L 864.183594 572.351562 L 860.03125 572.351562 L 859.554688 571.53125 L 826.980469 515.523438 L 828.40625 514.699219 L 830.035156 514.957031 L 819.753906 578.753906 L 819.535156 580.144531 L 806.929688 580.144531 L 807.242188 578.226562 L 821.472656 492.859375 L 821.710938 491.488281 L 826.082031 491.488281 L 826.558594 492.3125 L 863.433594 555.671875 L 862.007812 556.496094 L 860.578125 555.671875 L 897.234375 492.3125 L 897.710938 491.488281 L 901.972656 491.488281 L 902.210938 492.859375 L 916.441406 578.226562 L 916.753906 580.144531 L 904.09375 580.144531 L 903.875 578.753906 M 907.132812 578.242188 L 905.503906 578.5 L 905.503906 576.851562 L 914.777344 576.851562 L 914.777344 578.5 L 913.148438 578.773438 L 898.917969 493.40625 L 900.546875 493.132812 L 900.546875 494.78125 L 898.625 494.78125 L 898.625 493.132812 L 900.050781 493.957031 L 863.398438 557.316406 L 861.96875 559.769531 L 860.542969 557.316406 L 823.667969 493.957031 L 825.09375 493.132812 L 825.09375 494.78125 L 823.0625 494.78125 L 823.0625 493.132812 L 824.691406 493.40625 L 810.460938 578.773438 L 808.832031 578.5 L 808.832031 576.851562 L 818.089844 576.851562 L 818.089844 578.5 L 816.460938 578.242188 L 826.742188 514.441406 L 827.472656 509.90625 L 829.777344 513.875 L 862.355469 569.882812 L 860.925781 570.707031 L 860.925781 569.078125 L 863.175781 569.078125 L 863.175781 570.726562 L 861.75 569.902344 L 893.886719 514.003906 L 896.210938 509.980469 L 896.941406 514.570312 L 907.09375 578.261719 Z M 907.132812 578.242188 " clip-rule="nonzero"/></clipPath><clipPath id="f008f0b1e8"><path d="M 0.851562 0.289062 L 110.960938 0.289062 L 110.960938 89.285156 L 0.851562 89.285156 Z M 0.851562 0.289062 " clip-rule="nonzero"/></clipPath><clipPath id="c0d10dab3e"><path d="M 97.894531 87.753906 L 87.742188 24.066406 L 89.371094 23.808594 L 90.796875 24.632812 L 58.660156 80.53125 L 58.183594 81.351562 L 54.03125 81.351562 L 53.554688 80.53125 L 20.980469 24.523438 L 22.40625 23.699219 L 24.035156 23.957031 L 13.753906 87.753906 L 13.535156 89.144531 L 0.929688 89.144531 L 1.242188 87.226562 L 15.472656 1.859375 L 15.710938 0.488281 L 20.082031 0.488281 L 20.558594 1.3125 L 57.433594 64.671875 L 56.007812 65.496094 L 54.578125 64.671875 L 91.234375 1.3125 L 91.710938 0.488281 L 95.972656 0.488281 L 96.210938 1.859375 L 110.441406 87.226562 L 110.753906 89.144531 L 98.09375 89.144531 L 97.875 87.753906 M 101.132812 87.242188 L 99.503906 87.5 L 99.503906 85.851562 L 108.777344 85.851562 L 108.777344 87.5 L 107.148438 87.773438 L 92.917969 2.40625 L 94.546875 2.132812 L 94.546875 3.78125 L 92.625 3.78125 L 92.625 2.132812 L 94.050781 2.957031 L 57.398438 66.316406 L 55.96875 68.769531 L 54.542969 66.316406 L 17.667969 2.957031 L 19.09375 2.132812 L 19.09375 3.78125 L 17.0625 3.78125 L 17.0625 2.132812 L 18.691406 2.40625 L 4.460938 87.773438 L 2.832031 87.5 L 2.832031 85.851562 L 12.089844 85.851562 L 12.089844 87.5 L 10.460938 87.242188 L 20.742188 23.441406 L 21.472656 18.90625 L 23.777344 22.875 L 56.355469 78.882812 L 54.925781 79.707031 L 54.925781 78.078125 L 57.175781 78.078125 L 57.175781 79.726562 L 55.75 78.902344 L 87.886719 23.003906 L 90.210938 18.980469 L 90.941406 23.570312 L 101.09375 87.261719 Z M 101.132812 87.242188 " clip-rule="nonzero"/></clipPath><clipPath id="fb2874da0d"><rect x="0" width="111" y="0" height="90"/></clipPath><clipPath id="0695c52dc5"><path d="M 938.390625 510.730469 L 945.671875 510.730469 L 945.671875 578.132812 L 938.390625 578.132812 Z M 938.390625 510.730469 " clip-rule="nonzero"/></clipPath><clipPath id="d5437f20fe"><path d="M 0.390625 0.730469 L 7.671875 0.730469 L 7.671875 68.132812 L 0.390625 68.132812 Z M 0.390625 0.730469 " clip-rule="nonzero"/></clipPath><clipPath id="ef36aa1ca2"><rect x="0" width="8" y="0" height="69"/></clipPath><clipPath id="82f9d9770f"><path d="M 936.746094 509.082031 L 947.316406 509.082031 L 947.316406 512.375 L 936.746094 512.375 Z M 944.023438 512.375 L 947.316406 512.375 L 947.316406 576.488281 L 944.023438 576.488281 Z M 936.746094 512.375 L 940.035156 512.375 L 940.035156 576.488281 L 936.746094 576.488281 Z M 936.746094 576.488281 L 947.316406 576.488281 L 947.316406 579.78125 L 936.746094 579.78125 Z M 936.746094 576.488281 " clip-rule="nonzero"/></clipPath><clipPath id="9a234a35e1"><path d="M 0.746094 0.0820312 L 11.316406 0.0820312 L 11.316406 3.375 L 0.746094 3.375 Z M 8.023438 3.375 L 11.316406 3.375 L 11.316406 67.488281 L 8.023438 67.488281 Z M 0.746094 3.375 L 4.035156 3.375 L 4.035156 67.488281 L 0.746094 67.488281 Z M 0.746094 67.488281 L 11.316406 67.488281 L 11.316406 70.78125 L 0.746094 70.78125 Z M 0.746094 67.488281 " clip-rule="nonzero"/></clipPath><clipPath id="e96e300cd6"><rect x="0" width="12" y="0" height="71"/></clipPath><clipPath id="25285af888"><path d="M 969 510 L 1026.792969 510 L 1026.792969 579 L 969 579 Z M 969 510 " clip-rule="nonzero"/></clipPath><clipPath id="c8955b6a11"><path d="M 1026.464844 510.730469 L 1026.464844 578.480469 L 1024.945312 578.480469 L 976.417969 526.1875 L 976.417969 578.113281 L 969.136719 578.113281 L 969.136719 510.273438 L 970.582031 510.273438 L 1019.203125 562.292969 L 1019.203125 510.730469 Z M 1026.464844 510.730469 " clip-rule="nonzero"/></clipPath><clipPath id="a3a9026c71"><path d="M 0.015625 0.238281 L 57.589844 0.238281 L 57.589844 68.605469 L 0.015625 68.605469 Z M 0.015625 0.238281 " clip-rule="nonzero"/></clipPath><clipPath id="2e736fe0a5"><path d="M 57.464844 0.730469 L 57.464844 68.480469 L 55.945312 68.480469 L 7.417969 16.1875 L 7.417969 68.113281 L 0.136719 68.113281 L 0.136719 0.273438 L 1.582031 0.273438 L 50.203125 52.292969 L 50.203125 0.730469 Z M 57.464844 0.730469 " clip-rule="nonzero"/></clipPath><clipPath id="d7efa021ff"><rect x="0" width="58" y="0" height="69"/></clipPath><clipPath id="106995ee0b"><path d="M 967 508.078125 L 1028.621094 508.078125 L 1028.621094 581 L 967 581 Z M 967 508.078125 " clip-rule="nonzero"/></clipPath><clipPath id="15e4cc0207"><path d="M 1028.109375 510.730469 L 1028.109375 580.128906 L 1024.230469 580.128906 L 1023.738281 579.597656 L 975.210938 527.300781 L 976.417969 526.1875 L 978.066406 526.1875 L 978.066406 579.761719 L 967.492188 579.761719 L 967.492188 508.625 L 971.296875 508.625 L 971.789062 509.15625 L 1020.410156 561.175781 L 1019.203125 562.292969 L 1017.554688 562.292969 L 1017.554688 509.082031 L 1028.128906 509.082031 L 1028.128906 510.730469 M 1024.835938 510.730469 L 1026.480469 510.730469 L 1026.480469 512.375 L 1019.203125 512.375 L 1019.203125 510.730469 L 1020.847656 510.730469 L 1020.847656 566.480469 L 1017.996094 563.425781 L 969.375 511.40625 L 970.582031 510.292969 L 970.582031 511.9375 L 969.136719 511.9375 L 969.136719 510.292969 L 970.785156 510.292969 L 970.785156 578.132812 L 969.136719 578.132812 L 969.136719 576.488281 L 976.417969 576.488281 L 976.417969 578.132812 L 974.773438 578.132812 L 974.773438 521.996094 L 977.625 525.070312 L 1026.152344 577.363281 L 1024.945312 578.480469 L 1024.945312 576.835938 L 1026.464844 576.835938 L 1026.464844 578.480469 L 1024.816406 578.480469 L 1024.816406 510.730469 Z M 1024.835938 510.730469 " clip-rule="nonzero"/></clipPath><clipPath id="e25a7aade8"><path d="M 0.335938 0.558594 L 61.269531 0.558594 L 61.269531 72.285156 L 0.335938 72.285156 Z M 0.335938 0.558594 " clip-rule="nonzero"/></clipPath><clipPath id="2deba55db1"><path d="M 61.109375 2.730469 L 61.109375 72.128906 L 57.230469 72.128906 L 56.738281 71.597656 L 8.210938 19.300781 L 9.417969 18.1875 L 11.066406 18.1875 L 11.066406 71.761719 L 0.492188 71.761719 L 0.492188 0.625 L 4.296875 0.625 L 4.789062 1.15625 L 53.410156 53.175781 L 52.203125 54.292969 L 50.554688 54.292969 L 50.554688 1.082031 L 61.128906 1.082031 L 61.128906 2.730469 M 57.835938 2.730469 L 59.480469 2.730469 L 59.480469 4.375 L 52.203125 4.375 L 52.203125 2.730469 L 53.847656 2.730469 L 53.847656 58.480469 L 50.996094 55.425781 L 2.375 3.40625 L 3.582031 2.292969 L 3.582031 3.9375 L 2.136719 3.9375 L 2.136719 2.292969 L 3.785156 2.292969 L 3.785156 70.132812 L 2.136719 70.132812 L 2.136719 68.488281 L 9.417969 68.488281 L 9.417969 70.132812 L 7.773438 70.132812 L 7.773438 13.996094 L 10.625 17.070312 L 59.152344 69.363281 L 57.945312 70.480469 L 57.945312 68.835938 L 59.464844 68.835938 L 59.464844 70.480469 L 57.816406 70.480469 L 57.816406 2.730469 Z M 57.835938 2.730469 " clip-rule="nonzero"/></clipPath><clipPath id="915c7e443d"><rect x="0" width="62" y="0" height="73"/></clipPath><clipPath id="7c8f16bbba"><path d="M 1049 510 L 1107 510 L 1107 580 L 1049 580 Z M 1049 510 " clip-rule="nonzero"/></clipPath><clipPath id="5f8fd35b5a"><path d="M 1099.078125 544.421875 C 1099.078125 529.589844 1088.289062 517.460938 1068.878906 517.460938 L 1056.480469 517.460938 L 1056.480469 571.292969 C 1060.0625 572.097656 1064.929688 572.644531 1069.226562 572.644531 C 1088.46875 572.644531 1099.0625 560.0625 1099.0625 544.441406 M 1106.617188 544.347656 C 1106.617188 564.652344 1091.707031 579.394531 1068.605469 579.394531 C 1060.960938 579.394531 1052.96875 578.042969 1049.289062 576.613281 L 1049.289062 510.730469 L 1068.972656 510.730469 C 1091.800781 510.730469 1106.617188 525.105469 1106.617188 544.332031 " clip-rule="nonzero"/></clipPath><clipPath id="0336ebdaf6"><path d="M 0.140625 0.71875 L 57.710938 0.71875 L 57.710938 69.566406 L 0.140625 69.566406 Z M 0.140625 0.71875 " clip-rule="nonzero"/></clipPath><clipPath id="70430440ee"><path d="M 50.078125 34.421875 C 50.078125 19.589844 39.289062 7.460938 19.878906 7.460938 L 7.480469 7.460938 L 7.480469 61.292969 C 11.0625 62.097656 15.929688 62.644531 20.226562 62.644531 C 39.46875 62.644531 50.0625 50.0625 50.0625 34.441406 M 57.617188 34.347656 C 57.617188 54.652344 42.707031 69.394531 19.605469 69.394531 C 11.960938 69.394531 3.96875 68.042969 0.289062 66.613281 L 0.289062 0.730469 L 19.972656 0.730469 C 42.800781 0.730469 57.617188 15.105469 57.617188 34.332031 " clip-rule="nonzero"/></clipPath><clipPath id="4c72a7b199"><rect x="0" width="58" y="0" height="70"/></clipPath><clipPath id="8d22a24ef9"><path d="M 1047 509 L 1109 509 L 1109 581.152344 L 1047 581.152344 Z M 1047 509 " clip-rule="nonzero"/></clipPath><clipPath id="2899f2ec3a"><path d="M 1097.433594 544.421875 C 1097.433594 530.574219 1087.464844 519.105469 1068.878906 519.105469 L 1068.878906 517.460938 L 1068.878906 519.105469 L 1056.480469 519.105469 L 1056.480469 517.460938 L 1058.125 517.460938 L 1058.125 571.292969 L 1056.480469 571.292969 L 1056.84375 569.683594 C 1060.300781 570.46875 1065.039062 571 1069.246094 571 L 1069.246094 572.644531 L 1069.246094 571 C 1087.554688 571 1097.433594 559.164062 1097.433594 544.421875 L 1099.078125 544.421875 L 1097.433594 544.421875 M 1100.726562 544.421875 C 1100.726562 560.957031 1089.402344 574.273438 1069.246094 574.273438 C 1064.820312 574.273438 1059.84375 573.726562 1056.132812 572.882812 L 1054.851562 572.589844 L 1054.851562 515.796875 L 1068.898438 515.796875 C 1089.148438 515.796875 1100.742188 528.582031 1100.742188 544.402344 Z M 1108.28125 544.332031 C 1108.28125 565.640625 1092.53125 581.023438 1068.625 581.023438 L 1068.625 579.378906 L 1068.625 581.023438 C 1060.867188 581.023438 1052.65625 579.667969 1048.707031 578.132812 L 1047.664062 577.730469 L 1047.664062 509.082031 L 1068.992188 509.082031 L 1068.992188 510.730469 L 1068.992188 509.082031 C 1092.585938 509.082031 1108.28125 524.0625 1108.28125 544.332031 L 1106.632812 544.332031 L 1108.28125 544.332031 M 1104.988281 544.332031 C 1104.988281 526.148438 1091.03125 512.375 1068.992188 512.375 L 1049.308594 512.375 L 1049.308594 510.730469 L 1050.957031 510.730469 L 1050.957031 576.597656 L 1049.308594 576.597656 L 1049.914062 575.058594 C 1053.332031 576.394531 1061.105469 577.730469 1068.644531 577.730469 C 1090.921875 577.730469 1105.007812 563.628906 1105.007812 544.332031 Z M 1104.988281 544.332031 " clip-rule="nonzero"/></clipPath><clipPath id="81da0b1f52"><path d="M 0.460938 0.0390625 L 61.390625 0.0390625 L 61.390625 72.152344 L 0.460938 72.152344 Z M 0.460938 0.0390625 " clip-rule="nonzero"/></clipPath><clipPath id="9be6359a83"><path d="M 50.433594 35.421875 C 50.433594 21.574219 40.464844 10.105469 21.878906 10.105469 L 21.878906 8.460938 L 21.878906 10.105469 L 9.480469 10.105469 L 9.480469 8.460938 L 11.125 8.460938 L 11.125 62.292969 L 9.480469 62.292969 L 9.84375 60.683594 C 13.300781 61.46875 18.039062 62 22.246094 62 L 22.246094 63.644531 L 22.246094 62 C 40.554688 62 50.433594 50.164062 50.433594 35.421875 L 52.078125 35.421875 L 50.433594 35.421875 M 53.726562 35.421875 C 53.726562 51.957031 42.402344 65.273438 22.246094 65.273438 C 17.820312 65.273438 12.84375 64.726562 9.132812 63.882812 L 7.851562 63.589844 L 7.851562 6.796875 L 21.898438 6.796875 C 42.148438 6.796875 53.742188 19.582031 53.742188 35.402344 Z M 61.28125 35.332031 C 61.28125 56.640625 45.53125 72.023438 21.625 72.023438 L 21.625 70.378906 L 21.625 72.023438 C 13.867188 72.023438 5.65625 70.667969 1.707031 69.132812 L 0.664062 68.730469 L 0.664062 0.0820312 L 21.992188 0.0820312 L 21.992188 1.730469 L 21.992188 0.0820312 C 45.585938 0.0820312 61.28125 15.0625 61.28125 35.332031 L 59.632812 35.332031 L 61.28125 35.332031 M 57.988281 35.332031 C 57.988281 17.148438 44.03125 3.375 21.992188 3.375 L 2.308594 3.375 L 2.308594 1.730469 L 3.957031 1.730469 L 3.957031 67.597656 L 2.308594 67.597656 L 2.914062 66.058594 C 6.332031 67.394531 14.105469 68.730469 21.644531 68.730469 C 43.921875 68.730469 58.007812 54.628906 58.007812 35.332031 Z M 57.988281 35.332031 " clip-rule="nonzero"/></clipPath><clipPath id="53a8aa3802"><rect x="0" width="62" y="0" height="73"/></clipPath><clipPath id="d68642464c"><rect x="0" width="435" y="0" height="40"/></clipPath></defs><g clip-path="url(#b9a5ab03da)"><g clip-path="url(#a818577c81)"><g transform="matrix(1, 0, 0, 1, 188, 0)"><g clip-path="url(#6c9fe49046)"><g clip-path="url(#44c27f13a3)"><g clip-path="url(#15bb9a9da5)"></g></g></g></g></g></g><g clip-path="url(#490344c8bc)"><g clip-path="url(#6affd678db)"><g transform="matrix(1, 0, 0, 1, 686, 419)"><g clip-path="url(#c6a3a453ea)"><g clip-path="url(#9a80463a41)"><g clip-path="url(#484b62d318)"><rect x="-1016" width="2160" fill="#f8bdcf" height="1527.119955" y="-652.309993" fill-opacity="1"/></g></g></g></g></g></g><g clip-path="url(#6c4ebb8a0e)"><g clip-path="url(#cd7fcbf468)"><g transform="matrix(1, 0, 0, 1, 826, 458)"><g clip-path="url(#f577c660a1)"><g clip-path="url(#f5da427f1e)"><g clip-path="url(#422acfa6e8)"><rect x="-1156" width="2160" fill="#e7294b" height="1527.119955" y="-691.309993" fill-opacity="1"/></g></g></g></g></g></g><g clip-path="url(#1a0b2b2634)"><g clip-path="url(#f8dd5a21ad)"><g transform="matrix(1, 0, 0, 1, 896, 419)"><g clip-path="url(#561b4cc5ab)"><g clip-path="url(#3e70f7d9f5)"><g clip-path="url(#4068904567)"><rect x="-1226" width="2160" fill="#e7294b" height="1527.119955" y="-652.309993" fill-opacity="1"/></g></g></g></g></g></g><g clip-path="url(#01e59ec1b2)"><g clip-path="url(#93dbc961dc)"><g transform="matrix(1, 0, 0, 1, 842, 458)"><g clip-path="url(#29744d223f)"><g clip-path="url(#48fab36453)"><g clip-path="url(#99ea1c6ce8)"><rect x="-1172" width="2160" fill="#f8bdcf" height="1527.119955" y="-691.309993" fill-opacity="1"/></g></g></g></g></g></g><g clip-path="url(#cccc0e3617)"><g transform="matrix(1, 0, 0, 1, 408, 510)"><g clip-path="url(#b207c668c8)"><g clip-path="url(#d8a07978eb)"><rect x="-738" width="2160" fill="#ffffff" height="1527.119955" y="-743.309993" fill-opacity="1"/></g></g></g></g><g clip-path="url(#2780470e8c)"><g transform="matrix(1, 0, 0, 1, 406, 509)"><g clip-path="url(#0589c985b3)"><g clip-path="url(#756a48c5df)"><rect x="-736" width="2160" fill="#ffffff" height="1527.119955" y="-742.309993" fill-opacity="1"/></g></g></g></g><g clip-path="url(#8eb3e46f50)"><g clip-path="url(#06454942fa)"><g transform="matrix(1, 0, 0, 1, 461, 510)"><g clip-path="url(#4ee47a0cb4)"><g clip-path="url(#311d0f9526)"><g clip-path="url(#4909f67101)"><rect x="-791" width="2160" fill="#ffffff" height="1527.119955" y="-743.309993" fill-opacity="1"/></g></g></g></g></g></g><g clip-path="url(#c7182bc9c0)"><g clip-path="url(#c86392a27a)"><g transform="matrix(1, 0, 0, 1, 459, 509)"><g clip-path="url(#9e1da200ac)"><g clip-path="url(#02470ffe30)"><g clip-path="url(#c0777a7c66)"><rect x="-789" width="2160" fill="#ffffff" height="1527.119955" y="-742.309993" fill-opacity="1"/></g></g></g></g></g></g><g clip-path="url(#30b51e6f6f)"><g transform="matrix(1, 0, 0, 1, 531, 510)"><g clip-path="url(#f3d480615e)"><g clip-path="url(#0d0534f6f5)"><rect x="-861" width="2160" fill="#ffffff" height="1527.119955" y="-743.309993" fill-opacity="1"/></g></g></g></g><g clip-path="url(#95f3fb93cc)"><g transform="matrix(1, 0, 0, 1, 530, 509)"><g clip-path="url(#52da53b1f0)"><g clip-path="url(#8ddacb4e83)"><rect x="-860" width="2160" fill="#ffffff" height="1527.119955" y="-742.309993" fill-opacity="1"/></g></g></g></g><g clip-path="url(#dc1a4533c7)"><g transform="matrix(1, 0, 0, 1, 593, 510)"><g clip-path="url(#fa7e2af005)"><g clip-path="url(#c4981031ca)"><rect x="-923" width="2160" fill="#ffffff" height="1527.119955" y="-743.309993" fill-opacity="1"/></g></g></g></g><g clip-path="url(#5360ddc354)"><g transform="matrix(1, 0, 0, 1, 592, 509)"><g clip-path="url(#3303211621)"><g clip-path="url(#7cbddfd8d0)"><rect x="-922" width="2160" fill="#ffffff" height="1527.119955" y="-742.309993" fill-opacity="1"/></g></g></g></g><g clip-path="url(#23df8eb5af)"><g clip-path="url(#9a2898eb7a)"><g transform="matrix(1, 0, 0, 1, 655, 510)"><g clip-path="url(#06583685cd)"><g clip-path="url(#6d21352bec)"><g clip-path="url(#19c6ab5f7c)"><rect x="-985" width="2160" fill="#ffffff" height="1527.119955" y="-743.309993" fill-opacity="1"/></g></g></g></g></g></g><g clip-path="url(#7cbb6d0319)"><g clip-path="url(#0a126ac3af)"><g transform="matrix(1, 0, 0, 1, 654, 509)"><g clip-path="url(#166dcfa1bc)"><g clip-path="url(#ec00ef214d)"><g clip-path="url(#4a51052cc1)"><rect x="-984" width="2160" fill="#ffffff" height="1527.119955" y="-742.309993" fill-opacity="1"/></g></g></g></g></g></g><g clip-path="url(#0737de0d25)"><g clip-path="url(#ed149cc57c)"><g transform="matrix(1, 0, 0, 1, 726, 509)"><g clip-path="url(#748a845f8d)"><g clip-path="url(#bf1a03cea2)"><g clip-path="url(#50dd63c4b5)"><rect x="-1056" width="2160" fill="#ffffff" height="1527.119955" y="-742.309993" fill-opacity="1"/></g></g></g></g></g></g><g clip-path="url(#7990253f32)"><g clip-path="url(#521e8c79c5)"><g transform="matrix(1, 0, 0, 1, 724, 508)"><g clip-path="url(#28ab5a5bc5)"><g clip-path="url(#373da0752b)"><g clip-path="url(#20cd637ba7)"><rect x="-1054" width="2160" fill="#ffffff" height="1527.119955" y="-741.309993" fill-opacity="1"/></g></g></g></g></g></g><g clip-path="url(#de3ae7bba3)"><g clip-path="url(#e05c7c2293)"><g transform="matrix(1, 0, 0, 1, 808, 493)"><g clip-path="url(#9cee6dc1c9)"><g clip-path="url(#9583c44350)"><g clip-path="url(#a5c116a7c4)"><rect x="-1138" width="2160" fill="#e7294b" height="1527.119955" y="-726.309993" fill-opacity="1"/></g></g></g></g></g></g><g clip-path="url(#e9c4d58bfd)"><g clip-path="url(#4624b78951)"><g transform="matrix(1, 0, 0, 1, 806, 491)"><g clip-path="url(#fb2874da0d)"><g clip-path="url(#f008f0b1e8)"><g clip-path="url(#c0d10dab3e)"><rect x="-1136" width="2160" fill="#e62a4c" height="1527.119955" y="-724.309993" fill-opacity="1"/></g></g></g></g></g></g><g clip-path="url(#0695c52dc5)"><g transform="matrix(1, 0, 0, 1, 938, 510)"><g clip-path="url(#ef36aa1ca2)"><g clip-path="url(#d5437f20fe)"><rect x="-1268" width="2160" fill="#ffffff" height="1527.119955" y="-743.309993" fill-opacity="1"/></g></g></g></g><g clip-path="url(#82f9d9770f)"><g transform="matrix(1, 0, 0, 1, 936, 509)"><g clip-path="url(#e96e300cd6)"><g clip-path="url(#9a234a35e1)"><rect x="-1266" width="2160" fill="#ffffff" height="1527.119955" y="-742.309993" fill-opacity="1"/></g></g></g></g><g clip-path="url(#25285af888)"><g clip-path="url(#c8955b6a11)"><g transform="matrix(1, 0, 0, 1, 969, 510)"><g clip-path="url(#d7efa021ff)"><g clip-path="url(#a3a9026c71)"><g clip-path="url(#2e736fe0a5)"><rect x="-1299" width="2160" fill="#ffffff" height="1527.119955" y="-743.309993" fill-opacity="1"/></g></g></g></g></g></g><g clip-path="url(#106995ee0b)"><g clip-path="url(#15e4cc0207)"><g transform="matrix(1, 0, 0, 1, 967, 508)"><g clip-path="url(#915c7e443d)"><g clip-path="url(#e25a7aade8)"><g clip-path="url(#2deba55db1)"><rect x="-1297" width="2160" fill="#ffffff" height="1527.119955" y="-741.309993" fill-opacity="1"/></g></g></g></g></g></g><g clip-path="url(#7c8f16bbba)"><g clip-path="url(#5f8fd35b5a)"><g transform="matrix(1, 0, 0, 1, 1049, 510)"><g clip-path="url(#4c72a7b199)"><g clip-path="url(#0336ebdaf6)"><g clip-path="url(#70430440ee)"><rect x="-1379" width="2160" fill="#ffffff" height="1527.119955" y="-743.309993" fill-opacity="1"/></g></g></g></g></g></g><g clip-path="url(#8d22a24ef9)"><g clip-path="url(#2899f2ec3a)"><g transform="matrix(1, 0, 0, 1, 1047, 509)"><g clip-path="url(#53a8aa3802)"><g clip-path="url(#81da0b1f52)"><g clip-path="url(#9be6359a83)"><rect x="-1377" width="2160" fill="#ffffff" height="1527.119955" y="-742.309993" fill-opacity="1"/></g></g></g></g></g></g><g transform="matrix(1, 0, 0, 1, 533, 599)"><g clip-path="url(#d68642464c)"><g fill="#f8bdcf" fill-opacity="1"><g transform="translate(1.015917, 30.970186)"><g><path d="M 9.578125 0.1875 C 7.953125 0.1875 6.394531 -0.0703125 4.90625 -0.59375 C 3.425781 -1.113281 2.28125 -1.800781 1.46875 -2.65625 L 2.375 -4.4375 C 3.164062 -3.644531 4.210938 -3.003906 5.515625 -2.515625 C 6.828125 -2.023438 8.179688 -1.78125 9.578125 -1.78125 C 11.535156 -1.78125 13.003906 -2.140625 13.984375 -2.859375 C 14.960938 -3.578125 15.453125 -4.503906 15.453125 -5.640625 C 15.453125 -6.515625 15.1875 -7.210938 14.65625 -7.734375 C 14.125 -8.253906 13.472656 -8.65625 12.703125 -8.9375 C 11.929688 -9.21875 10.859375 -9.523438 9.484375 -9.859375 C 7.835938 -10.273438 6.523438 -10.675781 5.546875 -11.0625 C 4.578125 -11.445312 3.742188 -12.035156 3.046875 -12.828125 C 2.347656 -13.617188 2 -14.6875 2 -16.03125 C 2 -17.132812 2.289062 -18.140625 2.875 -19.046875 C 3.457031 -19.953125 4.347656 -20.675781 5.546875 -21.21875 C 6.753906 -21.757812 8.253906 -22.03125 10.046875 -22.03125 C 11.296875 -22.03125 12.519531 -21.859375 13.71875 -21.515625 C 14.914062 -21.171875 15.945312 -20.695312 16.8125 -20.09375 L 16.03125 -18.25 C 15.125 -18.851562 14.148438 -19.304688 13.109375 -19.609375 C 12.066406 -19.910156 11.046875 -20.0625 10.046875 -20.0625 C 8.128906 -20.0625 6.6875 -19.691406 5.71875 -18.953125 C 4.757812 -18.210938 4.28125 -17.257812 4.28125 -16.09375 C 4.28125 -15.226562 4.539062 -14.53125 5.0625 -14 C 5.59375 -13.46875 6.257812 -13.0625 7.0625 -12.78125 C 7.863281 -12.5 8.941406 -12.191406 10.296875 -11.859375 C 11.898438 -11.460938 13.191406 -11.070312 14.171875 -10.6875 C 15.160156 -10.300781 16 -9.71875 16.6875 -8.9375 C 17.375 -8.15625 17.71875 -7.097656 17.71875 -5.765625 C 17.71875 -4.671875 17.421875 -3.671875 16.828125 -2.765625 C 16.234375 -1.859375 15.320312 -1.140625 14.09375 -0.609375 C 12.875 -0.078125 11.367188 0.1875 9.578125 0.1875 Z M 9.578125 0.1875 "/></g></g></g><g fill="#f8bdcf" fill-opacity="1"><g transform="translate(21.66498, 30.970186)"><g><path d="M 9.796875 0.15625 C 8.210938 0.15625 6.785156 -0.203125 5.515625 -0.921875 C 4.253906 -1.640625 3.257812 -2.628906 2.53125 -3.890625 C 1.800781 -5.160156 1.4375 -6.597656 1.4375 -8.203125 C 1.4375 -9.804688 1.800781 -11.242188 2.53125 -12.515625 C 3.257812 -13.785156 4.253906 -14.769531 5.515625 -15.46875 C 6.785156 -16.175781 8.210938 -16.53125 9.796875 -16.53125 C 11.378906 -16.53125 12.800781 -16.175781 14.0625 -15.46875 C 15.332031 -14.769531 16.328125 -13.785156 17.046875 -12.515625 C 17.765625 -11.242188 18.125 -9.804688 18.125 -8.203125 C 18.125 -6.597656 17.765625 -5.160156 17.046875 -3.890625 C 16.328125 -2.628906 15.332031 -1.640625 14.0625 -0.921875 C 12.800781 -0.203125 11.378906 0.15625 9.796875 0.15625 Z M 9.796875 -1.8125 C 10.960938 -1.8125 12.007812 -2.078125 12.9375 -2.609375 C 13.863281 -3.140625 14.582031 -3.890625 15.09375 -4.859375 C 15.613281 -5.835938 15.875 -6.953125 15.875 -8.203125 C 15.875 -9.453125 15.613281 -10.566406 15.09375 -11.546875 C 14.582031 -12.523438 13.863281 -13.28125 12.9375 -13.8125 C 12.007812 -14.34375 10.960938 -14.609375 9.796875 -14.609375 C 8.628906 -14.609375 7.582031 -14.34375 6.65625 -13.8125 C 5.726562 -13.28125 5 -12.523438 4.46875 -11.546875 C 3.945312 -10.566406 3.6875 -9.453125 3.6875 -8.203125 C 3.6875 -6.953125 3.945312 -5.835938 4.46875 -4.859375 C 5 -3.890625 5.726562 -3.140625 6.65625 -2.609375 C 7.582031 -2.078125 8.628906 -1.8125 9.796875 -1.8125 Z M 9.796875 -1.8125 "/></g></g></g><g fill="#f8bdcf" fill-opacity="1"><g transform="translate(42.688325, 30.970186)"><g><path d="M 17.875 -16.40625 L 17.875 0 L 15.75 0 L 15.75 -3 C 15.175781 -2 14.378906 -1.222656 13.359375 -0.671875 C 12.335938 -0.117188 11.171875 0.15625 9.859375 0.15625 C 7.710938 0.15625 6.019531 -0.441406 4.78125 -1.640625 C 3.550781 -2.835938 2.9375 -4.585938 2.9375 -6.890625 L 2.9375 -16.40625 L 5.15625 -16.40625 L 5.15625 -7.109375 C 5.15625 -5.390625 5.578125 -4.082031 6.421875 -3.1875 C 7.273438 -2.289062 8.492188 -1.84375 10.078125 -1.84375 C 11.804688 -1.84375 13.164062 -2.367188 14.15625 -3.421875 C 15.15625 -4.472656 15.65625 -5.929688 15.65625 -7.796875 L 15.65625 -16.40625 Z M 17.875 -16.40625 "/></g></g></g><g fill="#f8bdcf" fill-opacity="1"><g transform="translate(65.146478, 30.970186)"><g><path d="M 3.09375 -23.15625 L 5.296875 -23.15625 L 5.296875 0 L 3.09375 0 Z M 3.09375 -23.15625 "/></g></g></g><g fill="#f8bdcf" fill-opacity="1"><g transform="translate(75.003361, 30.970186)"><g><path d="M 8.515625 -21.4375 C 7.554688 -21.4375 6.832031 -21.175781 6.34375 -20.65625 C 5.851562 -20.132812 5.609375 -19.363281 5.609375 -18.34375 L 5.609375 -16.40625 L 10.671875 -16.40625 L 10.671875 -14.546875 L 5.671875 -14.546875 L 5.671875 0 L 3.46875 0 L 3.46875 -14.546875 L 0.53125 -14.546875 L 0.53125 -16.40625 L 3.46875 -16.40625 L 3.46875 -18.4375 C 3.46875 -19.9375 3.894531 -21.125 4.75 -22 C 5.613281 -22.875 6.835938 -23.3125 8.421875 -23.3125 C 9.046875 -23.3125 9.648438 -23.222656 10.234375 -23.046875 C 10.816406 -22.867188 11.304688 -22.613281 11.703125 -22.28125 L 10.953125 -20.625 C 10.304688 -21.164062 9.492188 -21.4375 8.515625 -21.4375 Z M 8.515625 -21.4375 "/></g></g></g><g fill="#f8bdcf" fill-opacity="1"><g transform="translate(87.043616, 30.970186)"><g><path d="M 17.875 -16.40625 L 17.875 0 L 15.75 0 L 15.75 -3 C 15.175781 -2 14.378906 -1.222656 13.359375 -0.671875 C 12.335938 -0.117188 11.171875 0.15625 9.859375 0.15625 C 7.710938 0.15625 6.019531 -0.441406 4.78125 -1.640625 C 3.550781 -2.835938 2.9375 -4.585938 2.9375 -6.890625 L 2.9375 -16.40625 L 5.15625 -16.40625 L 5.15625 -7.109375 C 5.15625 -5.390625 5.578125 -4.082031 6.421875 -3.1875 C 7.273438 -2.289062 8.492188 -1.84375 10.078125 -1.84375 C 11.804688 -1.84375 13.164062 -2.367188 14.15625 -3.421875 C 15.15625 -4.472656 15.65625 -5.929688 15.65625 -7.796875 L 15.65625 -16.40625 Z M 17.875 -16.40625 "/></g></g></g><g fill="#f8bdcf" fill-opacity="1"><g transform="translate(109.501769, 30.970186)"><g><path d="M 3.09375 -23.15625 L 5.296875 -23.15625 L 5.296875 0 L 3.09375 0 Z M 3.09375 -23.15625 "/></g></g></g><g fill="#f8bdcf" fill-opacity="1"><g transform="translate(119.358652, 30.970186)"><g><path d="M 3.3125 0.15625 C 2.851562 0.15625 2.460938 -0.0078125 2.140625 -0.34375 C 1.816406 -0.675781 1.65625 -1.082031 1.65625 -1.5625 C 1.65625 -2.039062 1.816406 -2.441406 2.140625 -2.765625 C 2.460938 -3.085938 2.851562 -3.25 3.3125 -3.25 C 3.769531 -3.25 4.164062 -3.085938 4.5 -2.765625 C 4.832031 -2.441406 5 -2.039062 5 -1.5625 C 5 -1.082031 4.832031 -0.675781 4.5 -0.34375 C 4.164062 -0.0078125 3.769531 0.15625 3.3125 0.15625 Z M 3.3125 0.15625 "/></g></g></g><g fill="#f8bdcf" fill-opacity="1"><g transform="translate(127.437614, 30.970186)"><g/></g></g><g fill="#f8bdcf" fill-opacity="1"><g transform="translate(137.076153, 30.970186)"><g><path d="M 9.578125 0.1875 C 7.953125 0.1875 6.394531 -0.0703125 4.90625 -0.59375 C 3.425781 -1.113281 2.28125 -1.800781 1.46875 -2.65625 L 2.375 -4.4375 C 3.164062 -3.644531 4.210938 -3.003906 5.515625 -2.515625 C 6.828125 -2.023438 8.179688 -1.78125 9.578125 -1.78125 C 11.535156 -1.78125 13.003906 -2.140625 13.984375 -2.859375 C 14.960938 -3.578125 15.453125 -4.503906 15.453125 -5.640625 C 15.453125 -6.515625 15.1875 -7.210938 14.65625 -7.734375 C 14.125 -8.253906 13.472656 -8.65625 12.703125 -8.9375 C 11.929688 -9.21875 10.859375 -9.523438 9.484375 -9.859375 C 7.835938 -10.273438 6.523438 -10.675781 5.546875 -11.0625 C 4.578125 -11.445312 3.742188 -12.035156 3.046875 -12.828125 C 2.347656 -13.617188 2 -14.6875 2 -16.03125 C 2 -17.132812 2.289062 -18.140625 2.875 -19.046875 C 3.457031 -19.953125 4.347656 -20.675781 5.546875 -21.21875 C 6.753906 -21.757812 8.253906 -22.03125 10.046875 -22.03125 C 11.296875 -22.03125 12.519531 -21.859375 13.71875 -21.515625 C 14.914062 -21.171875 15.945312 -20.695312 16.8125 -20.09375 L 16.03125 -18.25 C 15.125 -18.851562 14.148438 -19.304688 13.109375 -19.609375 C 12.066406 -19.910156 11.046875 -20.0625 10.046875 -20.0625 C 8.128906 -20.0625 6.6875 -19.691406 5.71875 -18.953125 C 4.757812 -18.210938 4.28125 -17.257812 4.28125 -16.09375 C 4.28125 -15.226562 4.539062 -14.53125 5.0625 -14 C 5.59375 -13.46875 6.257812 -13.0625 7.0625 -12.78125 C 7.863281 -12.5 8.941406 -12.191406 10.296875 -11.859375 C 11.898438 -11.460938 13.191406 -11.070312 14.171875 -10.6875 C 15.160156 -10.300781 16 -9.71875 16.6875 -8.9375 C 17.375 -8.15625 17.71875 -7.097656 17.71875 -5.765625 C 17.71875 -4.671875 17.421875 -3.671875 16.828125 -2.765625 C 16.234375 -1.859375 15.320312 -1.140625 14.09375 -0.609375 C 12.875 -0.078125 11.367188 0.1875 9.578125 0.1875 Z M 9.578125 0.1875 "/></g></g></g><g fill="#f8bdcf" fill-opacity="1"><g transform="translate(157.725216, 30.970186)"><g><path d="M 11.734375 -1 C 11.316406 -0.625 10.800781 -0.335938 10.1875 -0.140625 C 9.570312 0.0546875 8.929688 0.15625 8.265625 0.15625 C 6.722656 0.15625 5.535156 -0.257812 4.703125 -1.09375 C 3.878906 -1.925781 3.46875 -3.101562 3.46875 -4.625 L 3.46875 -14.546875 L 0.53125 -14.546875 L 0.53125 -16.40625 L 3.46875 -16.40625 L 3.46875 -20 L 5.671875 -20 L 5.671875 -16.40625 L 10.671875 -16.40625 L 10.671875 -14.546875 L 5.671875 -14.546875 L 5.671875 -4.75 C 5.671875 -3.769531 5.914062 -3.023438 6.40625 -2.515625 C 6.894531 -2.003906 7.597656 -1.75 8.515625 -1.75 C 8.972656 -1.75 9.414062 -1.820312 9.84375 -1.96875 C 10.269531 -2.113281 10.640625 -2.320312 10.953125 -2.59375 Z M 11.734375 -1 "/></g></g></g><g fill="#f8bdcf" fill-opacity="1"><g transform="translate(171.855289, 30.970186)"><g><path d="M 5.203125 -13.203125 C 5.722656 -14.304688 6.5 -15.132812 7.53125 -15.6875 C 8.5625 -16.25 9.835938 -16.53125 11.359375 -16.53125 L 11.359375 -14.390625 L 10.828125 -14.421875 C 9.097656 -14.421875 7.742188 -13.890625 6.765625 -12.828125 C 5.785156 -11.765625 5.296875 -10.273438 5.296875 -8.359375 L 5.296875 0 L 3.09375 0 L 3.09375 -16.40625 L 5.203125 -16.40625 Z M 5.203125 -13.203125 "/></g></g></g><g fill="#f8bdcf" fill-opacity="1"><g transform="translate(185.829403, 30.970186)"><g><path d="M 9.796875 0.15625 C 8.210938 0.15625 6.785156 -0.203125 5.515625 -0.921875 C 4.253906 -1.640625 3.257812 -2.628906 2.53125 -3.890625 C 1.800781 -5.160156 1.4375 -6.597656 1.4375 -8.203125 C 1.4375 -9.804688 1.800781 -11.242188 2.53125 -12.515625 C 3.257812 -13.785156 4.253906 -14.769531 5.515625 -15.46875 C 6.785156 -16.175781 8.210938 -16.53125 9.796875 -16.53125 C 11.378906 -16.53125 12.800781 -16.175781 14.0625 -15.46875 C 15.332031 -14.769531 16.328125 -13.785156 17.046875 -12.515625 C 17.765625 -11.242188 18.125 -9.804688 18.125 -8.203125 C 18.125 -6.597656 17.765625 -5.160156 17.046875 -3.890625 C 16.328125 -2.628906 15.332031 -1.640625 14.0625 -0.921875 C 12.800781 -0.203125 11.378906 0.15625 9.796875 0.15625 Z M 9.796875 -1.8125 C 10.960938 -1.8125 12.007812 -2.078125 12.9375 -2.609375 C 13.863281 -3.140625 14.582031 -3.890625 15.09375 -4.859375 C 15.613281 -5.835938 15.875 -6.953125 15.875 -8.203125 C 15.875 -9.453125 15.613281 -10.566406 15.09375 -11.546875 C 14.582031 -12.523438 13.863281 -13.28125 12.9375 -13.8125 C 12.007812 -14.34375 10.960938 -14.609375 9.796875 -14.609375 C 8.628906 -14.609375 7.582031 -14.34375 6.65625 -13.8125 C 5.726562 -13.28125 5 -12.523438 4.46875 -11.546875 C 3.945312 -10.566406 3.6875 -9.453125 3.6875 -8.203125 C 3.6875 -6.953125 3.945312 -5.835938 4.46875 -4.859375 C 5 -3.890625 5.726562 -3.140625 6.65625 -2.609375 C 7.582031 -2.078125 8.628906 -1.8125 9.796875 -1.8125 Z M 9.796875 -1.8125 "/></g></g></g><g fill="#f8bdcf" fill-opacity="1"><g transform="translate(206.852748, 30.970186)"><g><path d="M 11.453125 -16.53125 C 13.515625 -16.53125 15.148438 -15.929688 16.359375 -14.734375 C 17.578125 -13.546875 18.1875 -11.804688 18.1875 -9.515625 L 18.1875 0 L 15.96875 0 L 15.96875 -9.296875 C 15.96875 -11.003906 15.539062 -12.304688 14.6875 -13.203125 C 13.84375 -14.097656 12.628906 -14.546875 11.046875 -14.546875 C 9.273438 -14.546875 7.875 -14.019531 6.84375 -12.96875 C 5.8125 -11.914062 5.296875 -10.460938 5.296875 -8.609375 L 5.296875 0 L 3.09375 0 L 3.09375 -16.40625 L 5.203125 -16.40625 L 5.203125 -13.390625 C 5.804688 -14.390625 6.644531 -15.160156 7.71875 -15.703125 C 8.789062 -16.253906 10.035156 -16.53125 11.453125 -16.53125 Z M 11.453125 -16.53125 "/></g></g></g><g fill="#f8bdcf" fill-opacity="1"><g transform="translate(229.435669, 30.970186)"><g><path d="M 18.28125 -16.40625 L 18.28125 -2 C 18.28125 0.789062 17.597656 2.851562 16.234375 4.1875 C 14.878906 5.53125 12.828125 6.203125 10.078125 6.203125 C 8.554688 6.203125 7.113281 5.976562 5.75 5.53125 C 4.394531 5.09375 3.289062 4.476562 2.4375 3.6875 L 3.5625 2 C 4.351562 2.707031 5.3125 3.257812 6.4375 3.65625 C 7.570312 4.050781 8.765625 4.25 10.015625 4.25 C 12.097656 4.25 13.625 3.765625 14.59375 2.796875 C 15.570312 1.828125 16.0625 0.320312 16.0625 -1.71875 L 16.0625 -3.8125 C 15.382812 -2.769531 14.488281 -1.976562 13.375 -1.4375 C 12.257812 -0.894531 11.023438 -0.625 9.671875 -0.625 C 8.128906 -0.625 6.726562 -0.960938 5.46875 -1.640625 C 4.21875 -2.316406 3.234375 -3.257812 2.515625 -4.46875 C 1.796875 -5.6875 1.4375 -7.066406 1.4375 -8.609375 C 1.4375 -10.148438 1.796875 -11.523438 2.515625 -12.734375 C 3.234375 -13.941406 4.210938 -14.875 5.453125 -15.53125 C 6.703125 -16.195312 8.109375 -16.53125 9.671875 -16.53125 C 11.066406 -16.53125 12.328125 -16.25 13.453125 -15.6875 C 14.578125 -15.132812 15.476562 -14.328125 16.15625 -13.265625 L 16.15625 -16.40625 Z M 9.890625 -2.59375 C 11.078125 -2.59375 12.148438 -2.847656 13.109375 -3.359375 C 14.066406 -3.867188 14.804688 -4.578125 15.328125 -5.484375 C 15.859375 -6.398438 16.125 -7.441406 16.125 -8.609375 C 16.125 -9.773438 15.859375 -10.8125 15.328125 -11.71875 C 14.804688 -12.625 14.070312 -13.332031 13.125 -13.84375 C 12.175781 -14.351562 11.097656 -14.609375 9.890625 -14.609375 C 8.703125 -14.609375 7.632812 -14.359375 6.6875 -13.859375 C 5.738281 -13.359375 5 -12.648438 4.46875 -11.734375 C 3.945312 -10.816406 3.6875 -9.773438 3.6875 -8.609375 C 3.6875 -7.441406 3.945312 -6.398438 4.46875 -5.484375 C 5 -4.578125 5.738281 -3.867188 6.6875 -3.359375 C 7.632812 -2.847656 8.703125 -2.59375 9.890625 -2.59375 Z M 9.890625 -2.59375 "/></g></g></g><g fill="#f8bdcf" fill-opacity="1"><g transform="translate(252.299318, 30.970186)"><g><path d="M 3.3125 0.15625 C 2.851562 0.15625 2.460938 -0.0078125 2.140625 -0.34375 C 1.816406 -0.675781 1.65625 -1.082031 1.65625 -1.5625 C 1.65625 -2.039062 1.816406 -2.441406 2.140625 -2.765625 C 2.460938 -3.085938 2.851562 -3.25 3.3125 -3.25 C 3.769531 -3.25 4.164062 -3.085938 4.5 -2.765625 C 4.832031 -2.441406 5 -2.039062 5 -1.5625 C 5 -1.082031 4.832031 -0.675781 4.5 -0.34375 C 4.164062 -0.0078125 3.769531 0.15625 3.3125 0.15625 Z M 3.3125 0.15625 "/></g></g></g><g fill="#f8bdcf" fill-opacity="1"><g transform="translate(260.378281, 30.970186)"><g/></g></g><g fill="#f8bdcf" fill-opacity="1"><g transform="translate(270.01682, 30.970186)"><g><path d="M 9.578125 0.1875 C 7.953125 0.1875 6.394531 -0.0703125 4.90625 -0.59375 C 3.425781 -1.113281 2.28125 -1.800781 1.46875 -2.65625 L 2.375 -4.4375 C 3.164062 -3.644531 4.210938 -3.003906 5.515625 -2.515625 C 6.828125 -2.023438 8.179688 -1.78125 9.578125 -1.78125 C 11.535156 -1.78125 13.003906 -2.140625 13.984375 -2.859375 C 14.960938 -3.578125 15.453125 -4.503906 15.453125 -5.640625 C 15.453125 -6.515625 15.1875 -7.210938 14.65625 -7.734375 C 14.125 -8.253906 13.472656 -8.65625 12.703125 -8.9375 C 11.929688 -9.21875 10.859375 -9.523438 9.484375 -9.859375 C 7.835938 -10.273438 6.523438 -10.675781 5.546875 -11.0625 C 4.578125 -11.445312 3.742188 -12.035156 3.046875 -12.828125 C 2.347656 -13.617188 2 -14.6875 2 -16.03125 C 2 -17.132812 2.289062 -18.140625 2.875 -19.046875 C 3.457031 -19.953125 4.347656 -20.675781 5.546875 -21.21875 C 6.753906 -21.757812 8.253906 -22.03125 10.046875 -22.03125 C 11.296875 -22.03125 12.519531 -21.859375 13.71875 -21.515625 C 14.914062 -21.171875 15.945312 -20.695312 16.8125 -20.09375 L 16.03125 -18.25 C 15.125 -18.851562 14.148438 -19.304688 13.109375 -19.609375 C 12.066406 -19.910156 11.046875 -20.0625 10.046875 -20.0625 C 8.128906 -20.0625 6.6875 -19.691406 5.71875 -18.953125 C 4.757812 -18.210938 4.28125 -17.257812 4.28125 -16.09375 C 4.28125 -15.226562 4.539062 -14.53125 5.0625 -14 C 5.59375 -13.46875 6.257812 -13.0625 7.0625 -12.78125 C 7.863281 -12.5 8.941406 -12.191406 10.296875 -11.859375 C 11.898438 -11.460938 13.191406 -11.070312 14.171875 -10.6875 C 15.160156 -10.300781 16 -9.71875 16.6875 -8.9375 C 17.375 -8.15625 17.71875 -7.097656 17.71875 -5.765625 C 17.71875 -4.671875 17.421875 -3.671875 16.828125 -2.765625 C 16.234375 -1.859375 15.320312 -1.140625 14.09375 -0.609375 C 12.875 -0.078125 11.367188 0.1875 9.578125 0.1875 Z M 9.578125 0.1875 "/></g></g></g><g fill="#f8bdcf" fill-opacity="1"><g transform="translate(290.665882, 30.970186)"><g><path d="M 11.734375 -1 C 11.316406 -0.625 10.800781 -0.335938 10.1875 -0.140625 C 9.570312 0.0546875 8.929688 0.15625 8.265625 0.15625 C 6.722656 0.15625 5.535156 -0.257812 4.703125 -1.09375 C 3.878906 -1.925781 3.46875 -3.101562 3.46875 -4.625 L 3.46875 -14.546875 L 0.53125 -14.546875 L 0.53125 -16.40625 L 3.46875 -16.40625 L 3.46875 -20 L 5.671875 -20 L 5.671875 -16.40625 L 10.671875 -16.40625 L 10.671875 -14.546875 L 5.671875 -14.546875 L 5.671875 -4.75 C 5.671875 -3.769531 5.914062 -3.023438 6.40625 -2.515625 C 6.894531 -2.003906 7.597656 -1.75 8.515625 -1.75 C 8.972656 -1.75 9.414062 -1.820312 9.84375 -1.96875 C 10.269531 -2.113281 10.640625 -2.320312 10.953125 -2.59375 Z M 11.734375 -1 "/></g></g></g><g fill="#f8bdcf" fill-opacity="1"><g transform="translate(304.795956, 30.970186)"><g><path d="M 5.203125 -13.203125 C 5.722656 -14.304688 6.5 -15.132812 7.53125 -15.6875 C 8.5625 -16.25 9.835938 -16.53125 11.359375 -16.53125 L 11.359375 -14.390625 L 10.828125 -14.421875 C 9.097656 -14.421875 7.742188 -13.890625 6.765625 -12.828125 C 5.785156 -11.765625 5.296875 -10.273438 5.296875 -8.359375 L 5.296875 0 L 3.09375 0 L 3.09375 -16.40625 L 5.203125 -16.40625 Z M 5.203125 -13.203125 "/></g></g></g><g fill="#f8bdcf" fill-opacity="1"><g transform="translate(318.770069, 30.970186)"><g><path d="M 8.828125 -16.53125 C 10.972656 -16.53125 12.617188 -15.992188 13.765625 -14.921875 C 14.910156 -13.859375 15.484375 -12.273438 15.484375 -10.171875 L 15.484375 0 L 13.359375 0 L 13.359375 -2.5625 C 12.859375 -1.707031 12.125 -1.039062 11.15625 -0.5625 C 10.1875 -0.0820312 9.035156 0.15625 7.703125 0.15625 C 5.878906 0.15625 4.425781 -0.28125 3.34375 -1.15625 C 2.257812 -2.03125 1.71875 -3.1875 1.71875 -4.625 C 1.71875 -6.007812 2.222656 -7.128906 3.234375 -7.984375 C 4.242188 -8.835938 5.847656 -9.265625 8.046875 -9.265625 L 13.265625 -9.265625 L 13.265625 -10.265625 C 13.265625 -11.679688 12.867188 -12.757812 12.078125 -13.5 C 11.285156 -14.238281 10.128906 -14.609375 8.609375 -14.609375 C 7.566406 -14.609375 6.566406 -14.4375 5.609375 -14.09375 C 4.660156 -13.75 3.84375 -13.273438 3.15625 -12.671875 L 2.15625 -14.328125 C 2.988281 -15.035156 3.984375 -15.578125 5.140625 -15.953125 C 6.304688 -16.335938 7.535156 -16.53125 8.828125 -16.53125 Z M 8.046875 -1.59375 C 9.296875 -1.59375 10.367188 -1.878906 11.265625 -2.453125 C 12.160156 -3.023438 12.828125 -3.851562 13.265625 -4.9375 L 13.265625 -7.609375 L 8.109375 -7.609375 C 5.304688 -7.609375 3.90625 -6.632812 3.90625 -4.6875 C 3.90625 -3.726562 4.265625 -2.972656 4.984375 -2.421875 C 5.710938 -1.867188 6.734375 -1.59375 8.046875 -1.59375 Z M 8.046875 -1.59375 "/></g></g></g><g fill="#f8bdcf" fill-opacity="1"><g transform="translate(338.639355, 30.970186)"><g><path d="M 11.734375 -1 C 11.316406 -0.625 10.800781 -0.335938 10.1875 -0.140625 C 9.570312 0.0546875 8.929688 0.15625 8.265625 0.15625 C 6.722656 0.15625 5.535156 -0.257812 4.703125 -1.09375 C 3.878906 -1.925781 3.46875 -3.101562 3.46875 -4.625 L 3.46875 -14.546875 L 0.53125 -14.546875 L 0.53125 -16.40625 L 3.46875 -16.40625 L 3.46875 -20 L 5.671875 -20 L 5.671875 -16.40625 L 10.671875 -16.40625 L 10.671875 -14.546875 L 5.671875 -14.546875 L 5.671875 -4.75 C 5.671875 -3.769531 5.914062 -3.023438 6.40625 -2.515625 C 6.894531 -2.003906 7.597656 -1.75 8.515625 -1.75 C 8.972656 -1.75 9.414062 -1.820312 9.84375 -1.96875 C 10.269531 -2.113281 10.640625 -2.320312 10.953125 -2.59375 Z M 11.734375 -1 "/></g></g></g><g fill="#f8bdcf" fill-opacity="1"><g transform="translate(352.769407, 30.970186)"><g><path d="M 17.375 -7.515625 L 3.65625 -7.515625 C 3.78125 -5.816406 4.429688 -4.441406 5.609375 -3.390625 C 6.796875 -2.335938 8.296875 -1.8125 10.109375 -1.8125 C 11.128906 -1.8125 12.066406 -1.992188 12.921875 -2.359375 C 13.773438 -2.722656 14.515625 -3.257812 15.140625 -3.96875 L 16.375 -2.53125 C 15.65625 -1.65625 14.75 -0.988281 13.65625 -0.53125 C 12.5625 -0.0703125 11.359375 0.15625 10.046875 0.15625 C 8.359375 0.15625 6.863281 -0.203125 5.5625 -0.921875 C 4.269531 -1.640625 3.257812 -2.628906 2.53125 -3.890625 C 1.800781 -5.160156 1.4375 -6.597656 1.4375 -8.203125 C 1.4375 -9.804688 1.785156 -11.242188 2.484375 -12.515625 C 3.179688 -13.785156 4.132812 -14.769531 5.34375 -15.46875 C 6.5625 -16.175781 7.929688 -16.53125 9.453125 -16.53125 C 10.972656 -16.53125 12.335938 -16.175781 13.546875 -15.46875 C 14.753906 -14.769531 15.695312 -13.789062 16.375 -12.53125 C 17.0625 -11.269531 17.40625 -9.828125 17.40625 -8.203125 Z M 9.453125 -14.640625 C 7.867188 -14.640625 6.539062 -14.132812 5.46875 -13.125 C 4.40625 -12.113281 3.800781 -10.796875 3.65625 -9.171875 L 15.296875 -9.171875 C 15.148438 -10.796875 14.539062 -12.113281 13.46875 -13.125 C 12.394531 -14.132812 11.054688 -14.640625 9.453125 -14.640625 Z M 9.453125 -14.640625 "/></g></g></g><g fill="#f8bdcf" fill-opacity="1"><g transform="translate(373.075358, 30.970186)"><g><path d="M 18.28125 -16.40625 L 18.28125 -2 C 18.28125 0.789062 17.597656 2.851562 16.234375 4.1875 C 14.878906 5.53125 12.828125 6.203125 10.078125 6.203125 C 8.554688 6.203125 7.113281 5.976562 5.75 5.53125 C 4.394531 5.09375 3.289062 4.476562 2.4375 3.6875 L 3.5625 2 C 4.351562 2.707031 5.3125 3.257812 6.4375 3.65625 C 7.570312 4.050781 8.765625 4.25 10.015625 4.25 C 12.097656 4.25 13.625 3.765625 14.59375 2.796875 C 15.570312 1.828125 16.0625 0.320312 16.0625 -1.71875 L 16.0625 -3.8125 C 15.382812 -2.769531 14.488281 -1.976562 13.375 -1.4375 C 12.257812 -0.894531 11.023438 -0.625 9.671875 -0.625 C 8.128906 -0.625 6.726562 -0.960938 5.46875 -1.640625 C 4.21875 -2.316406 3.234375 -3.257812 2.515625 -4.46875 C 1.796875 -5.6875 1.4375 -7.066406 1.4375 -8.609375 C 1.4375 -10.148438 1.796875 -11.523438 2.515625 -12.734375 C 3.234375 -13.941406 4.210938 -14.875 5.453125 -15.53125 C 6.703125 -16.195312 8.109375 -16.53125 9.671875 -16.53125 C 11.066406 -16.53125 12.328125 -16.25 13.453125 -15.6875 C 14.578125 -15.132812 15.476562 -14.328125 16.15625 -13.265625 L 16.15625 -16.40625 Z M 9.890625 -2.59375 C 11.078125 -2.59375 12.148438 -2.847656 13.109375 -3.359375 C 14.066406 -3.867188 14.804688 -4.578125 15.328125 -5.484375 C 15.859375 -6.398438 16.125 -7.441406 16.125 -8.609375 C 16.125 -9.773438 15.859375 -10.8125 15.328125 -11.71875 C 14.804688 -12.625 14.070312 -13.332031 13.125 -13.84375 C 12.175781 -14.351562 11.097656 -14.609375 9.890625 -14.609375 C 8.703125 -14.609375 7.632812 -14.359375 6.6875 -13.859375 C 5.738281 -13.359375 5 -12.648438 4.46875 -11.734375 C 3.945312 -10.816406 3.6875 -9.773438 3.6875 -8.609375 C 3.6875 -7.441406 3.945312 -6.398438 4.46875 -5.484375 C 5 -4.578125 5.738281 -3.867188 6.6875 -3.359375 C 7.632812 -2.847656 8.703125 -2.59375 9.890625 -2.59375 Z M 9.890625 -2.59375 "/></g></g></g><g fill="#f8bdcf" fill-opacity="1"><g transform="translate(395.939049, 30.970186)"><g><path d="M 3.09375 -16.40625 L 5.296875 -16.40625 L 5.296875 0 L 3.09375 0 Z M 4.21875 -20 C 3.757812 -20 3.375 -20.15625 3.0625 -20.46875 C 2.75 -20.78125 2.59375 -21.15625 2.59375 -21.59375 C 2.59375 -22.007812 2.75 -22.375 3.0625 -22.6875 C 3.375 -23 3.757812 -23.15625 4.21875 -23.15625 C 4.675781 -23.15625 5.0625 -23.003906 5.375 -22.703125 C 5.6875 -22.398438 5.84375 -22.039062 5.84375 -21.625 C 5.84375 -21.164062 5.6875 -20.78125 5.375 -20.46875 C 5.0625 -20.15625 4.675781 -20 4.21875 -20 Z M 4.21875 -20 "/></g></g></g><g fill="#f8bdcf" fill-opacity="1"><g transform="translate(405.79591, 30.970186)"><g><path d="M 9.890625 0.15625 C 8.265625 0.15625 6.8125 -0.195312 5.53125 -0.90625 C 4.257812 -1.613281 3.257812 -2.601562 2.53125 -3.875 C 1.800781 -5.15625 1.4375 -6.597656 1.4375 -8.203125 C 1.4375 -9.804688 1.800781 -11.242188 2.53125 -12.515625 C 3.257812 -13.785156 4.257812 -14.769531 5.53125 -15.46875 C 6.8125 -16.175781 8.265625 -16.53125 9.890625 -16.53125 C 11.304688 -16.53125 12.570312 -16.253906 13.6875 -15.703125 C 14.800781 -15.160156 15.675781 -14.359375 16.3125 -13.296875 L 14.671875 -12.171875 C 14.128906 -12.984375 13.441406 -13.59375 12.609375 -14 C 11.773438 -14.40625 10.867188 -14.609375 9.890625 -14.609375 C 8.703125 -14.609375 7.632812 -14.34375 6.6875 -13.8125 C 5.738281 -13.28125 5 -12.523438 4.46875 -11.546875 C 3.945312 -10.566406 3.6875 -9.453125 3.6875 -8.203125 C 3.6875 -6.929688 3.945312 -5.8125 4.46875 -4.84375 C 5 -3.882812 5.738281 -3.140625 6.6875 -2.609375 C 7.632812 -2.078125 8.703125 -1.8125 9.890625 -1.8125 C 10.867188 -1.8125 11.773438 -2.007812 12.609375 -2.40625 C 13.441406 -2.800781 14.128906 -3.40625 14.671875 -4.21875 L 16.3125 -3.09375 C 15.675781 -2.03125 14.796875 -1.222656 13.671875 -0.671875 C 12.546875 -0.117188 11.285156 0.15625 9.890625 0.15625 Z M 9.890625 0.15625 "/></g></g></g><g fill="#f8bdcf" fill-opacity="1"><g transform="translate(424.823034, 30.970186)"><g><path d="M 3.3125 0.15625 C 2.851562 0.15625 2.460938 -0.0078125 2.140625 -0.34375 C 1.816406 -0.675781 1.65625 -1.082031 1.65625 -1.5625 C 1.65625 -2.039062 1.816406 -2.441406 2.140625 -2.765625 C 2.460938 -3.085938 2.851562 -3.25 3.3125 -3.25 C 3.769531 -3.25 4.164062 -3.085938 4.5 -2.765625 C 4.832031 -2.441406 5 -2.039062 5 -1.5625 C 5 -1.082031 4.832031 -0.675781 4.5 -0.34375 C 4.164062 -0.0078125 3.769531 0.15625 3.3125 0.15625 Z M 3.3125 0.15625 "/></g></g></g></g></g></svg>