<svg xmlns="http://www.w3.org/2000/svg" width="1567" height="732" viewBox="0 0 1567 732">
  <path id="red" d="M 1284.176 49.472 C 1057.355 82.404, 1020.603 87.967, 1019.056 89.602 C 1018.068 90.646, 1000.479 111.075, 979.969 135 C 959.459 158.925, 941.774 179.511, 940.668 180.747 L 938.657 182.994 943.578 181.545 C 946.285 180.748, 1083.050 142.486, 1247.500 96.519 C 1411.950 50.551, 1547.625 12.540, 1549 12.050 C 1550.994 11.338, 1551.095 11.166, 1549.500 11.199 C 1548.400 11.221, 1429.004 28.444, 1284.176 49.472 M 629 184.596 C 629 184.883, 635.447 194.428, 643.327 205.808 C 651.207 217.189, 666.537 239.438, 677.394 255.250 C 688.250 271.063, 697.440 284.010, 697.816 284.023 C 699.101 284.066, 780.954 249.502, 780.977 248.906 C 780.990 248.580, 750.288 235.347, 712.750 219.501 C 675.212 203.654, 641.013 189.201, 636.750 187.382 C 632.487 185.564, 629 184.310, 629 184.596 M 605 329.510 C 605 329.790, 590.375 417.761, 572.500 525 C 554.625 632.239, 540 720.210, 540 720.490 C 540 720.771, 552.345 721, 567.433 721 C 592.700 721, 594.905 720.862, 595.369 719.250 C 595.646 718.288, 605.445 657.953, 617.145 585.174 C 635.335 472.016, 638.608 453.110, 639.738 454.657 C 640.466 455.652, 648.241 468.848, 657.017 483.983 C 665.793 499.117, 695.877 550.875, 723.870 599 L 774.766 686.500 784.099 686.500 L 793.431 686.500 848.966 589.928 C 879.510 536.813, 909.610 484.473, 915.856 473.617 C 922.101 462.761, 927.394 454.061, 927.617 454.284 C 927.984 454.651, 939.420 525.603, 962.182 668.750 L 970.491 721 998.313 721 C 1024.333 721, 1026.103 720.887, 1025.637 719.250 C 1025.363 718.288, 1010.596 630.073, 992.820 523.217 L 960.500 328.934 951.035 329.217 L 941.570 329.500 863.035 465.191 C 819.841 539.821, 784.224 601.147, 783.887 601.471 C 783.549 601.795, 747.549 540.634, 703.887 465.558 L 624.500 329.056 614.750 329.028 C 609.388 329.013, 605 329.229, 605 329.510" fill="#e7294c" fill-rule="evenodd"/>
  <path id="pink" d="M 15 11.292 C 15.651 11.903, 76.462 29.053, 170 55.004 C 179.625 57.674, 217.425 68.251, 254 78.508 C 290.575 88.764, 328.600 99.409, 338.500 102.162 C 359.631 108.039, 374.428 112.179, 396.746 118.458 C 420.922 125.259, 469.457 138.844, 500.500 147.498 C 507.100 149.337, 537.672 157.862, 568.439 166.442 C 599.205 175.021, 624.677 181.919, 625.043 181.770 C 625.658 181.520, 615.811 169.841, 582.597 131.424 C 575.501 123.216, 564.251 110.119, 557.597 102.319 C 549.753 93.124, 544.621 87.939, 543 87.570 C 541.625 87.257, 510.800 82.711, 474.500 77.468 C 438.200 72.225, 354.275 60.090, 288 50.501 C 221.725 40.912, 134.650 28.331, 94.500 22.544 C 54.350 16.757, 19.925 11.752, 18 11.422 C 16.075 11.092, 14.725 11.033, 15 11.292 M 922.500 190.111 C 914.800 193.386, 902.200 198.722, 894.500 201.970 C 868.229 213.050, 846.516 222.200, 827.500 230.205 C 817.050 234.603, 803.251 240.441, 796.835 243.177 C 790.419 245.913, 784.569 248.255, 783.835 248.381 C 783.101 248.506, 781.150 249.294, 779.500 250.130 C 777.850 250.967, 758.843 259.043, 737.262 268.076 C 715.681 277.109, 698.018 284.808, 698.012 285.184 C 698.001 285.793, 766.368 385.617, 778.016 402 C 780.558 405.575, 783.035 408.500, 783.522 408.500 C 784.359 408.500, 792.663 396.610, 821.583 354 C 828.489 343.825, 837.994 329.875, 842.705 323 C 847.416 316.125, 859.022 299.025, 868.496 285 C 877.969 270.975, 890.033 253.200, 895.303 245.500 C 925.829 200.900, 937.290 183.922, 936.765 184.079 C 936.619 184.122, 930.200 186.837, 922.500 190.111" fill="#f8bdd0" fill-rule="evenodd"/>
</svg>